<?xml version="1.0" encoding="UTF-8"?>
<svg id="Layer_1" data-name="Layer 1" xmlns="http://www.w3.org/2000/svg" viewBox="0 0 1440 3186.74">
  <defs>
    <style>
      .cls-1 {
        stroke-dasharray: 0 0 36.38 36.38;
      }

      .cls-1, .cls-2, .cls-3, .cls-4, .cls-5, .cls-6, .cls-7, .cls-8, .cls-9, .cls-10, .cls-11 {
        stroke: #1f3b51;
        stroke-width: 8.99px;
      }

      .cls-1, .cls-2, .cls-3, .cls-4, .cls-7, .cls-8, .cls-12, .cls-11 {
        fill: none;
      }

      .cls-1, .cls-2, .cls-3, .cls-5, .cls-6, .cls-7, .cls-8, .cls-9, .cls-11 {
        stroke-miterlimit: 10;
      }

      .cls-1, .cls-3, .cls-4, .cls-5, .cls-6, .cls-7, .cls-8, .cls-9, .cls-10, .cls-11 {
        stroke-linecap: round;
      }

      .cls-3 {
        stroke-dasharray: 0 35.95;
      }

      .cls-13 {
        fill: #ffdd92;
      }

      .cls-4, .cls-10 {
        stroke-linejoin: round;
      }

      .cls-5, .cls-14 {
        fill: #1f3b51;
      }

      .cls-6 {
        fill: #4d6e84;
      }

      .cls-6, .cls-8, .cls-15 {
        opacity: .1;
      }

      .cls-16, .cls-10 {
        fill: #b7d1cc;
      }

      .cls-9 {
        fill: #fff;
      }

      .cls-11 {
        stroke-dasharray: 0 0 35.28 35.28;
      }
    </style>
  </defs>
  <g>
    <g class="cls-15">
      <g>
        <line class="cls-7" x1="128.06" y1="388.88" x2="128.06" y2="406.85"/>
        <path class="cls-11" d="M128.06,442.13v396.37c0,53.2,35.07,98.21,83.35,113.16"/>
        <path class="cls-7" d="M228.6,955.6c5.84,.89,11.82,1.35,17.91,1.35h0"/>
      </g>
    </g>
    <g class="cls-15">
      <g>
        <path class="cls-7" d="M364.96,388.88c0-6.09,.46-12.07,1.35-17.91"/>
        <path class="cls-1" d="M377.19,336.39c19.35-39.09,59.64-65.96,106.21-65.96h0c65.42,0,118.45,53.03,118.45,118.45v449.62c0,65.42,53.03,118.45,118.45,118.45s118.45-53.03,118.45-118.45V388.88c0-65.42,53.03-118.45,118.45-118.45h0c65.42,0,118.45,53.03,118.45,118.45v449.62c0,65.42,53.03,118.45,118.45,118.45,53.01,0,97.89-34.83,113.01-82.85"/>
        <path class="cls-7" d="M1311.2,856.41c.89-5.84,1.35-11.82,1.35-17.91"/>
      </g>
      <path class="cls-3" d="M301.77,1030.46c-22.77-22.77-36.85-54.22-36.85-88.96s14.08-66.2,36.85-88.96,54.22-36.85,88.96-36.85,66.2,14.08,88.96,36.85c22.77,22.77,36.85,54.22,36.85,88.96s-14.08,66.19-36.85,88.96"/>
    </g>
    <g class="cls-15">
      <path class="cls-7" d="M128.06,388.88v449.62c0,65.42,53.03,118.45,118.45,118.45h0"/>
      <path class="cls-7" d="M720.3,956.95c65.42,0,118.45-53.03,118.45-118.45V388.88c0-65.42,53.03-118.45,118.45-118.45"/>
      <path class="cls-7" d="M261.66,278.13c-7.23,17.07-17.69,32.45-30.61,45.36-12.92,12.92-28.3,23.38-45.36,30.61-17.07,7.23-35.82,11.23-55.49,11.23s-38.43-4-55.49-11.23c-17.07-7.23-32.44-17.69-45.36-30.61-12.92-12.92-23.38-28.3-30.61-45.36"/>
      <polyline class="cls-7" points="395.9 459.59 527.31 459.59 527.31 510.65"/>
    </g>
    <g class="cls-15">
      <circle class="cls-12" cx="130.2" cy="222.63" r="106.75" transform="translate(-119.29 157.27) rotate(-45)"/>
      <line class="cls-7" x1="130.2" y1="222.63" x2="130.2" y2="172.96"/>
      <line class="cls-7" x1="130.2" y1="122.93" x2="130.2" y2="110.24"/>
      <line class="cls-7" x1="200.06" y1="151.57" x2="209.02" y2="142.6"/>
      <line class="cls-7" x1="229.2" y1="221.22" x2="241.88" y2="221.22"/>
      <line class="cls-7" x1="200.55" y1="291.08" x2="209.52" y2="300.05"/>
      <line class="cls-7" x1="130.9" y1="320.23" x2="130.9" y2="332.91"/>
      <line class="cls-7" x1="61.04" y1="291.58" x2="52.07" y2="300.55"/>
      <line class="cls-7" x1="31.9" y1="221.93" x2="19.21" y2="221.93"/>
      <line class="cls-7" x1="60.54" y1="152.07" x2="51.57" y2="143.1"/>
      <line class="cls-7" x1="130.14" y1="223.48" x2="186.69" y2="166.93"/>
      <circle class="cls-9" cx="130.2" cy="222.63" r="26.42"/>
    </g>
    <path class="cls-8" d="M478.22,944.46c0-48.32-39.17-87.49-87.49-87.49s-87.49,39.17-87.49,87.49c0,33.54,18.89,62.64,46.6,77.32v47.59h81.77v-47.59c27.71-14.68,46.6-43.78,46.6-77.32Z"/>
    <path class="cls-8" d="M404.01,1061.75v-95.17c0-8.93,7.24-16.17,16.17-16.17h.92c8.93,0,16.17,7.24,16.17,16.17h0c0,8.93-7.24,16.17-16.17,16.17h-60.75c-8.93,0-16.17-7.24-16.17-16.17h0c0-8.93,7.24-16.17,16.17-16.17h.92c8.93,0,16.17,7.24,16.17,16.17v95.17"/>
    <path class="cls-6" d="M439.64,1066.19h-97.81v40.94l20.43,5.2c7.14,6.44,16.57,17.14,26.95,17.14h3.06c10.38,0,19.81-10.7,26.95-17.14l20.43-5.2v-40.94Z"/>
    <g class="cls-15">
      <path class="cls-5" d="M444.51,1070.41h-107.55c-2.58,0-4.68-2.09-4.68-4.68h0c0-2.58,2.09-4.68,4.68-4.68h107.55c2.58,0,4.68,2.09,4.68,4.68h0c0,2.58-2.09,4.68-4.68,4.68Z"/>
      <path class="cls-5" d="M444.51,1091.03h-107.55c-2.58,0-4.68-2.09-4.68-4.68h0c0-2.58,2.09-4.68,4.68-4.68h107.55c2.58,0,4.68,2.09,4.68,4.68h0c0,2.58-2.09,4.68-4.68,4.68Z"/>
      <path class="cls-5" d="M444.51,1111.64h-107.55c-2.58,0-4.68-2.09-4.68-4.68h0c0-2.58,2.09-4.68,4.68-4.68h107.55c2.58,0,4.68,2.09,4.68,4.68h0c0,2.58-2.09,4.68-4.68,4.68Z"/>
    </g>
    <g class="cls-15">
      <path class="cls-16" d="M548.82,401.88l16.03,14.28,1.73,1.55-17.75-15.78-23.05,58.64,55.68-29.64-.03-.03,112.28-126.02h-.01s18.57-21.34,18.57-21.34c5.01-8.28,3.15-19.63-4.91-26.81-.18-.16-.37-.3-.56-.46-8.03-6.73-19.17-7.13-26.64-1.34l-19.01,20.94-.03-.03-112.29,126.04Z"/>
      <polygon class="cls-13" points="548.83 401.93 525.78 460.57 581.47 430.93 548.83 401.93"/>
      <polygon class="cls-4" points="548.83 401.93 525.78 460.57 581.47 430.93 548.83 401.93"/>
      <polygon class="cls-14" points="525.78 460.57 545.11 450.31 533.81 440.24 525.78 460.57"/>
      <polygon class="cls-4" points="564.85 416.16 581.42 430.92 693.71 304.88 676.92 289.92 661.11 275.84 548.82 401.88 564.85 416.16"/>
      <path class="cls-4" d="M661,276.02l15.78,14.05,16.78,14.95,18.71-21.49c5.01-8.28,3.14-19.63-4.91-26.81-.18-.16-.37-.3-.56-.46-8.03-6.73-19.17-7.13-26.64-1.34l-19.15,21.1Z"/>
      <line class="cls-2" x1="676.92" y1="289.92" x2="564.85" y2="416.16"/>
    </g>
    <path class="cls-8" d="M775.1,514.22h-8.92c-1.38-9.13-4.97-17.51-10.24-24.61l6.36-6.36c1.41-1.41,1.41-3.69,0-5.1l-6.55-6.55c-1.41-1.41-3.69-1.41-5.1,0l-6.37,6.37c-7.09-5.23-15.47-8.79-24.58-10.16v-9.05c0-1.99-1.61-3.61-3.61-3.61h-9.26c-1.99,0-3.61,1.61-3.61,3.61v9.05c-9.11,1.36-17.48,4.92-24.57,10.15l-6.39-6.4c-1.41-1.41-3.69-1.41-5.1,0l-6.55,6.55c-1.41,1.41-1.41,3.69,0,5.1l6.38,6.38c-5.26,7.09-8.85,15.46-10.24,24.58h-8.97c-1.99,0-3.61,1.61-3.61,3.61v9.26c0,1.99,1.61,3.61,3.61,3.61h8.93c1.34,9.15,4.91,17.56,10.15,24.69l-6.27,6.27c-1.41,1.41-1.41,3.69,0,5.1l6.55,6.55c1.41,1.41,3.69,1.41,5.1,0l6.25-6.25c7.12,5.29,15.54,8.9,24.7,10.27v8.81c0,1.99,1.61,3.61,3.61,3.61h9.26c1.99,0,3.61-1.61,3.61-3.61v-8.8c9.18-1.36,17.6-4.96,24.73-10.24l6.24,6.23c1.41,1.41,3.69,1.41,5.1,0l6.55-6.55c1.41-1.41,1.41-3.69,0-5.1l-6.24-6.24c5.26-7.13,8.84-15.54,10.19-24.71h8.89c1.99,0,3.61-1.61,3.61-3.61v-9.26c0-1.99-1.61-3.61-3.61-3.61Zm-63.65,27.81c-10.74,0-19.47-8.73-19.47-19.47s8.73-19.47,19.47-19.47,19.47,8.73,19.47,19.47-8.73,19.47-19.47,19.47Z"/>
    <g class="cls-15">
      <g>
        <g>
          <rect class="cls-4" x="916" y="825.03" width="20.87" height="274.32" transform="translate(2134.21 1532.59) rotate(159.2)"/>
          <polygon class="cls-10" points="867.96 837.68 887.47 830.26 857.72 810.73 867.96 837.68"/>
        </g>
        <g>
          <rect class="cls-4" x="828.85" y="912.18" width="20.87" height="274.32" transform="translate(-439.73 1461.2) rotate(-69.2)"/>
          <polygon class="cls-10" points="714.78 990.86 707.36 1010.38 687.83 980.63 714.78 990.86"/>
        </g>
      </g>
      <path class="cls-7" d="M818.99,1069.99c3.14-9.05,7.11-18.11,11.88-27.04,4.77-8.93,10.35-17.74,16.71-26.29,6.36-8.55,13.51-16.85,21.42-24.76,7.91-7.91,16.21-15.05,24.76-21.42,8.55-6.36,17.36-11.94,26.29-16.71,8.93-4.77,17.99-8.74,27.04-11.88"/>
      <path class="cls-10" d="M1009.56,1157.76l25.3-25.3,35.26,35.26c6.99,6.99,6.99,18.31,0,25.3h0c-6.99,6.99-18.31,6.99-25.3,0l-35.26-35.26Z"/>
      <g>
        <circle class="cls-7" cx="995.85" cy="1118.76" r="42.24"/>
        <path class="cls-9" d="M982.85,1105.75c7.17-7.17,18.84-7.17,26.01,0,7.17,7.17,7.17,18.83,0,26-7.17,7.17-18.83,7.17-26,0-7.17-7.17-7.17-18.84,0-26.01Z"/>
      </g>
    </g>
    <g class="cls-15">
      <path class="cls-14" d="M951.26,651.61c0,1.83-1.48,3.3-3.3,3.3h-16.52c-1.82,0-3.3-1.48-3.3-3.3s1.48-3.3,3.3-3.3h16.52c1.82,0,3.3,1.48,3.3,3.3Zm-33.04,0c0,1.83-1.48,3.3-3.3,3.3h-16.52c-1.83,0-3.3-1.48-3.3-3.3s1.48-3.3,3.3-3.3h16.52c1.83,0,3.3,1.48,3.3,3.3Zm-33.05,0c0,1.83-1.48,3.3-3.3,3.3h-9.45c-1.82,0-3.3-1.48-3.3-3.3s1.48-3.3,3.3-3.3h9.45c1.82,0,3.3,1.48,3.3,3.3Z"/>
      <path class="cls-14" d="M906.6,83.61h-75.54c-1.82,0-3.3,1.48-3.3,3.3s1.48,3.3,3.3,3.3h75.54c1.83,0,3.3-1.48,3.3-3.3s-1.48-3.3-3.3-3.3Z"/>
      <path class="cls-14" d="M807.02,83.6h-14.76c-1.83,0-3.3,1.48-3.3,3.3s1.48,3.3,3.3,3.3h14.76c1.82,0,3.3-1.48,3.3-3.3s-1.48-3.3-3.3-3.3Z"/>
      <path class="cls-14" d="M871.11,109.93c0,1.82-1.48,3.3-3.3,3.3h-9.45c-1.82,0-3.3-1.48-3.3-3.3s1.48-3.3,3.3-3.3h9.45c1.82,0,3.3,1.48,3.3,3.3Zm-25.97,0c0,1.82-1.48,3.3-3.3,3.3h-16.52c-1.83,0-3.3-1.48-3.3-3.3s1.48-3.3,3.3-3.3h16.52c1.82,0,3.3,1.48,3.3,3.3Zm-33.05,0c0,1.82-1.48,3.3-3.3,3.3h-16.52c-1.82,0-3.3-1.48-3.3-3.3s1.48-3.3,3.3-3.3h16.52c1.82,0,3.3,1.48,3.3,3.3Z"/>
      <path class="cls-14" d="M951.02,364.7c0,6.45,5.22,11.67,11.67,11.67s11.67-5.22,11.67-11.67-5.22-11.67-11.67-11.67-11.67,5.22-11.67,11.67Z"/>
      <path class="cls-14" d="M688.64,743.45h-75.54c-1.82,0-3.3,1.48-3.3,3.3s1.48,3.3,3.3,3.3h75.54c1.82,0,3.3-1.48,3.3-3.3s-1.48-3.3-3.3-3.3Z"/>
      <path class="cls-14" d="M589.06,743.43h-14.76c-1.82,0-3.3,1.48-3.3,3.3s1.48,3.3,3.3,3.3h14.76c1.82,0,3.3-1.48,3.3-3.3s-1.48-3.3-3.3-3.3Z"/>
      <path class="cls-14" d="M653.15,769.77c0,1.83-1.48,3.3-3.3,3.3h-9.45c-1.83,0-3.3-1.48-3.3-3.3s1.48-3.3,3.3-3.3h9.45c1.82,0,3.3,1.48,3.3,3.3Zm-25.97,0c0,1.83-1.48,3.3-3.3,3.3h-16.52c-1.82,0-3.3-1.48-3.3-3.3s1.48-3.3,3.3-3.3h16.52c1.83,0,3.3,1.48,3.3,3.3Zm-33.05,0c0,1.83-1.48,3.3-3.3,3.3h-16.52c-1.82,0-3.3-1.48-3.3-3.3s1.48-3.3,3.3-3.3h16.52c1.82,0,3.3,1.48,3.3,3.3Z"/>
      <path class="cls-14" d="M1420.38,292.08c-1.82,0-3.3,1.48-3.3,3.3v7.67c0,1.83,1.48,3.3,3.3,3.3s3.3-1.48,3.3-3.3v-7.67c0-1.83-1.48-3.3-3.3-3.3Z"/>
      <path class="cls-14" d="M1411.73,284.39h-7.66c-1.82,0-3.3,1.48-3.3,3.3s1.48,3.3,3.3,3.3h7.66c1.82,0,3.3-1.48,3.3-3.3s-1.48-3.3-3.3-3.3Z"/>
      <path class="cls-14" d="M1420.38,268.51c-1.82,0-3.3,1.48-3.3,3.3v7.66c0,1.83,1.48,3.3,3.3,3.3s3.3-1.48,3.3-3.3v-7.66c0-1.83-1.48-3.3-3.3-3.3Z"/>
      <path class="cls-14" d="M1436.7,283.87h-7.67c-1.82,0-3.3,1.48-3.3,3.3s1.48,3.3,3.3,3.3h7.67c1.82,0,3.3-1.48,3.3-3.3s-1.48-3.3-3.3-3.3Z"/>
      <path class="cls-14" d="M1275.63,18.62s2.58,18.38-18.89,17.95c0,0,18.44,.19,17.96,17.43,0,0,1.66-13.57,18.58-16.6,0,0-14.3,3.28-17.64-18.79Z"/>
      <path class="cls-14" d="M491.45,594.46s1.57,11.22-11.53,10.96c0,0,11.26,.12,10.96,10.64,0,0,1.01-8.28,11.34-10.13,0,0-8.73,2-10.77-11.47Z"/>
      <g>
        <path class="cls-14" d="M1176.23,175.12h-73.35c-9.38,0-17.02-7.63-17.02-17.02s7.34-16.72,16.47-17.01c.24-14.32,11.96-25.89,26.34-25.89,8.92,0,17.21,4.54,22.06,11.96,9.88-1.41,18.71,4.81,21.21,13.92h4.29c9.38,0,17.02,7.64,17.02,17.02s-7.63,17.02-17.02,17.02Zm-73.35-29c-6.61,0-11.98,5.38-11.98,11.98s5.37,11.98,11.98,11.98h73.35c6.61,0,11.98-5.37,11.98-11.98s-5.37-11.98-11.98-11.98h-8.47l-.34-2.12c-1.27-8.01-8.89-13.61-17.36-11.59l-1.85,.44-.93-1.66c-3.77-6.75-10.9-10.95-18.61-10.95-11.75,0-21.3,9.56-21.3,21.3,0,.62,.04,1.24,.09,1.84l.23,2.73h-4.82Z"/>
        <path class="cls-14" d="M1176.23,176.74h-73.35c-10.28,0-18.63-8.36-18.63-18.64,0-9.62,7.15-17.48,16.54-18.52,1.02-14.47,13.23-26,27.89-26,9.13,0,17.6,4.41,22.84,11.85,9.55-.9,18.54,4.95,21.62,14.03h3.09c10.28,0,18.64,8.36,18.64,18.64s-8.36,18.64-18.64,18.64Zm-47.56-59.91c-13.4,0-24.49,10.9-24.72,24.3l-.03,1.54-1.54,.05c-8.36,.27-14.9,7.03-14.9,15.39s6.91,15.4,15.4,15.4h73.35c8.49,0,15.4-6.91,15.4-15.4s-6.91-15.4-15.4-15.4h-5.52l-.33-1.19c-2.38-8.65-10.52-14.03-19.42-12.75l-1.02,.15-.57-.86c-4.59-7.03-12.33-11.22-20.7-11.22Zm47.56,54.88h-73.35c-7.5,0-13.6-6.1-13.6-13.6s6.1-13.6,13.6-13.6h3.05l-.08-.97c-.05-.66-.1-1.31-.1-1.98,0-12.64,10.28-22.92,22.92-22.92,8.3,0,15.97,4.51,20.02,11.78l.33,.59,.66-.16c4.41-1.05,8.85-.29,12.51,2.16,3.64,2.44,6.13,6.36,6.83,10.75l.12,.76h7.08c7.5,0,13.6,6.1,13.6,13.6s-6.1,13.6-13.6,13.6Zm-73.35-23.96c-5.71,0-10.36,4.65-10.36,10.36s4.65,10.36,10.36,10.36h73.35c5.71,0,10.36-4.65,10.36-10.36s-4.65-10.36-10.36-10.36h-9.85l-.56-3.49c-.56-3.51-2.53-6.63-5.43-8.57-2.89-1.94-6.43-2.55-9.95-1.7l-3.05,.73-1.53-2.73c-3.48-6.24-10.07-10.12-17.2-10.12-10.85,0-19.68,8.83-19.68,19.68,0,.58,.04,1.15,.09,1.71l.39,4.49h-6.58Z"/>
      </g>
      <path class="cls-14" d="M653.71,185.81h-7.38v-7.38c0-1.93-1.56-3.5-3.49-3.5s-3.5,1.57-3.5,3.5v7.38h-7.38c-1.93,0-3.5,1.57-3.5,3.5s1.56,3.5,3.5,3.5h7.38v7.38c0,1.93,1.57,3.5,3.5,3.5s3.49-1.56,3.49-3.5v-7.38h7.38c1.93,0,3.5-1.56,3.5-3.5s-1.57-3.5-3.5-3.5Z"/>
      <path class="cls-14" d="M1013.12,611.53c0,7.35-5.98,13.34-13.33,13.34s-13.34-5.98-13.34-13.34,5.98-13.34,13.34-13.34,13.33,5.98,13.33,13.34Zm-6.61,0c0-3.71-3.02-6.73-6.72-6.73s-6.73,3.02-6.73,6.73,3.02,6.73,6.73,6.73,6.72-3.02,6.72-6.73Z"/>
      <path class="cls-14" d="M1197.73,863.83c-1.82,0-3.3,1.48-3.3,3.3v7.67c0,1.82,1.48,3.3,3.3,3.3s3.3-1.48,3.3-3.3v-7.67c0-1.83-1.48-3.3-3.3-3.3Z"/>
      <path class="cls-14" d="M1189.08,856.14h-7.66c-1.82,0-3.3,1.48-3.3,3.3s1.48,3.3,3.3,3.3h7.66c1.82,0,3.3-1.48,3.3-3.3s-1.48-3.3-3.3-3.3Z"/>
      <path class="cls-14" d="M1197.73,840.26c-1.82,0-3.3,1.48-3.3,3.3v7.66c0,1.83,1.48,3.3,3.3,3.3s3.3-1.48,3.3-3.3v-7.66c0-1.82-1.48-3.3-3.3-3.3Z"/>
      <path class="cls-14" d="M1214.05,855.61h-7.66c-1.83,0-3.3,1.48-3.3,3.3s1.48,3.3,3.3,3.3h7.66c1.82,0,3.3-1.48,3.3-3.3s-1.48-3.3-3.3-3.3Z"/>
      <path class="cls-14" d="M1282.08,527.68c1.82,0,3.3-1.48,3.3-3.3v-7.67c0-1.82-1.48-3.3-3.3-3.3s-3.3,1.48-3.3,3.3v7.67c0,1.83,1.48,3.3,3.3,3.3Z"/>
      <path class="cls-14" d="M1290.73,535.37h7.66c1.83,0,3.3-1.48,3.3-3.3s-1.48-3.3-3.3-3.3h-7.66c-1.82,0-3.3,1.48-3.3,3.3s1.48,3.3,3.3,3.3Z"/>
      <path class="cls-14" d="M1282.08,551.25c1.82,0,3.3-1.48,3.3-3.3v-7.66c0-1.83-1.48-3.3-3.3-3.3s-3.3,1.48-3.3,3.3v7.66c0,1.82,1.48,3.3,3.3,3.3Z"/>
      <path class="cls-14" d="M1265.76,535.89h7.66c1.82,0,3.3-1.48,3.3-3.3s-1.48-3.3-3.3-3.3h-7.66c-1.82,0-3.3,1.48-3.3,3.3s1.48,3.3,3.3,3.3Z"/>
      <path class="cls-14" d="M1318.84,1224.47s2.58,18.38-18.89,17.95c0,0,18.44,.19,17.96,17.43,0,0,1.66-13.57,18.58-16.6,0,0-14.3,3.28-17.64-18.79Z"/>
      <path class="cls-14" d="M946.37,811.9s1.57,11.22-11.53,10.96c0,0,11.26,.12,10.96,10.64,0,0,1.01-8.28,11.34-10.13,0,0-8.73,2-10.77-11.47Z"/>
      <g>
        <path class="cls-14" d="M1397,1023.04h-73.35c-9.38,0-17.02-7.63-17.02-17.02s7.34-16.72,16.47-17.01c.24-14.32,11.96-25.89,26.34-25.89,8.92,0,17.21,4.54,22.06,11.96,9.88-1.41,18.71,4.81,21.21,13.92h4.29c9.38,0,17.02,7.64,17.02,17.02s-7.63,17.02-17.02,17.02Zm-73.35-29c-6.61,0-11.98,5.38-11.98,11.98s5.37,11.98,11.98,11.98h73.35c6.61,0,11.98-5.37,11.98-11.98s-5.37-11.98-11.98-11.98h-8.47l-.34-2.12c-1.27-8.01-8.89-13.61-17.36-11.59l-1.85,.44-.93-1.66c-3.77-6.75-10.9-10.95-18.61-10.95-11.75,0-21.3,9.56-21.3,21.3,0,.62,.04,1.24,.09,1.84l.23,2.73h-4.82Z"/>
        <path class="cls-14" d="M1397,1024.66h-73.35c-10.28,0-18.63-8.36-18.63-18.64,0-9.61,7.15-17.48,16.54-18.52,1.02-14.47,13.23-26,27.89-26,9.13,0,17.6,4.41,22.84,11.85,9.56-.91,18.54,4.95,21.62,14.03h3.09c10.28,0,18.64,8.36,18.64,18.63s-8.36,18.64-18.64,18.64Zm-47.56-59.92c-13.4,0-24.49,10.9-24.72,24.3l-.03,1.54-1.54,.05c-8.36,.27-14.9,7.03-14.9,15.39s6.91,15.4,15.4,15.4h73.35c8.49,0,15.4-6.91,15.4-15.4s-6.91-15.4-15.4-15.4h-5.52l-.33-1.19c-2.38-8.66-10.54-14-19.42-12.75l-1.02,.15-.57-.86c-4.59-7.03-12.33-11.23-20.7-11.23Zm47.56,54.88h-73.35c-7.5,0-13.6-6.1-13.6-13.6s6.1-13.6,13.6-13.6h3.05l-.08-.97c-.05-.66-.1-1.32-.1-1.98,0-12.64,10.28-22.92,22.92-22.92,8.3,0,15.97,4.51,20.02,11.78l.33,.59,.66-.16c4.41-1.05,8.85-.28,12.51,2.16,3.64,2.44,6.13,6.36,6.83,10.75l.12,.75h7.08c7.5,0,13.6,6.1,13.6,13.6s-6.1,13.6-13.6,13.6Zm-73.35-23.96c-5.71,0-10.36,4.65-10.36,10.36s4.65,10.36,10.36,10.36h73.35c5.71,0,10.36-4.65,10.36-10.36s-4.65-10.36-10.36-10.36h-9.85l-.56-3.48c-.56-3.51-2.53-6.63-5.43-8.57-2.9-1.94-6.44-2.54-9.95-1.7l-3.05,.73-1.53-2.73c-3.48-6.24-10.07-10.12-17.2-10.12-10.85,0-19.68,8.83-19.68,19.68,0,.58,.04,1.15,.09,1.71l.39,4.48h-6.58Z"/>
      </g>
      <path class="cls-14" d="M599.32,1243.13h75.54c1.82,0,3.3-1.48,3.3-3.3s-1.48-3.3-3.3-3.3h-75.54c-1.82,0-3.3,1.48-3.3,3.3s1.48,3.3,3.3,3.3Z"/>
      <path class="cls-14" d="M698.9,1243.14h14.76c1.82,0,3.3-1.48,3.3-3.3s-1.48-3.3-3.3-3.3h-14.76c-1.82,0-3.3,1.48-3.3,3.3s1.48,3.3,3.3,3.3Z"/>
      <path class="cls-14" d="M634.81,1216.81c0-1.82,1.48-3.3,3.3-3.3h9.45c1.83,0,3.3,1.48,3.3,3.3s-1.48,3.3-3.3,3.3h-9.45c-1.82,0-3.3-1.48-3.3-3.3Zm25.97,0c0-1.82,1.48-3.3,3.3-3.3h16.52c1.83,0,3.3,1.48,3.3,3.3s-1.48,3.3-3.3,3.3h-16.52c-1.82,0-3.3-1.48-3.3-3.3Zm33.05,0c0-1.82,1.48-3.3,3.3-3.3h16.52c1.82,0,3.3,1.48,3.3,3.3s-1.48,3.3-3.3,3.3h-16.52c-1.82,0-3.3-1.48-3.3-3.3Z"/>
      <path class="cls-14" d="M165.86,1093.31h-7.38v-7.38c0-1.93-1.56-3.5-3.49-3.5s-3.5,1.57-3.5,3.5v7.38h-7.38c-1.93,0-3.5,1.57-3.5,3.5s1.56,3.5,3.5,3.5h7.38v7.38c0,1.93,1.57,3.5,3.5,3.5s3.49-1.56,3.49-3.5v-7.38h7.38c1.93,0,3.5-1.57,3.5-3.5s-1.57-3.5-3.5-3.5Z"/>
      <path class="cls-14" d="M1074.84,979.39h-7.38v-7.38c0-1.93-1.56-3.5-3.49-3.5s-3.5,1.57-3.5,3.5v7.38h-7.38c-1.93,0-3.49,1.57-3.49,3.5s1.56,3.5,3.49,3.5h7.38v7.38c0,1.93,1.57,3.5,3.5,3.5s3.49-1.56,3.49-3.5v-7.38h7.38c1.93,0,3.5-1.57,3.5-3.5s-1.57-3.5-3.5-3.5Z"/>
    </g>
  </g>
  <g>
    <g class="cls-15">
      <g>
        <line class="cls-7" x1="128.06" y1="1564.59" x2="128.06" y2="1582.56"/>
        <path class="cls-11" d="M128.06,1617.84v396.37c0,53.2,35.07,98.21,83.35,113.16"/>
        <path class="cls-7" d="M228.6,2131.31c5.84,.89,11.82,1.35,17.91,1.35h0"/>
      </g>
    </g>
    <g class="cls-15">
      <g>
        <path class="cls-7" d="M364.96,1564.59c0-6.09,.46-12.07,1.35-17.91"/>
        <path class="cls-1" d="M377.19,1512.11c19.35-39.09,59.64-65.96,106.21-65.96h0c65.42,0,118.45,53.03,118.45,118.45v449.62c0,65.42,53.03,118.45,118.45,118.45s118.45-53.03,118.45-118.45v-449.62c0-65.42,53.03-118.45,118.45-118.45h0c65.42,0,118.45,53.03,118.45,118.45v449.62c0,65.42,53.03,118.45,118.45,118.45,53.01,0,97.89-34.83,113.01-82.85"/>
        <path class="cls-7" d="M1311.2,2032.12c.89-5.84,1.35-11.82,1.35-17.91"/>
      </g>
      <path class="cls-3" d="M301.77,2206.18c-22.77-22.77-36.85-54.22-36.85-88.96s14.08-66.2,36.85-88.96,54.22-36.85,88.96-36.85,66.2,14.08,88.96,36.85c22.77,22.77,36.85,54.22,36.85,88.96s-14.08,66.19-36.85,88.96"/>
    </g>
    <g class="cls-15">
      <path class="cls-7" d="M128.06,1564.59v449.62c0,65.42,53.03,118.45,118.45,118.45h0"/>
      <path class="cls-7" d="M720.3,2132.66c65.42,0,118.45-53.03,118.45-118.45v-449.62c0-65.42,53.03-118.45,118.45-118.45"/>
      <path class="cls-7" d="M261.66,1453.84c-7.23,17.07-17.69,32.45-30.61,45.36-12.92,12.92-28.3,23.38-45.36,30.61-17.07,7.23-35.82,11.23-55.49,11.23s-38.43-4-55.49-11.23c-17.07-7.23-32.44-17.69-45.36-30.61-12.92-12.92-23.38-28.3-30.61-45.36"/>
      <polyline class="cls-7" points="395.9 1635.3 527.31 1635.3 527.31 1686.36"/>
    </g>
    <g class="cls-15">
      <circle class="cls-12" cx="130.2" cy="1398.35" r="106.75" transform="translate(-950.65 501.63) rotate(-45)"/>
      <line class="cls-7" x1="130.2" y1="1398.35" x2="130.2" y2="1348.67"/>
      <line class="cls-7" x1="130.2" y1="1298.64" x2="130.2" y2="1285.95"/>
      <line class="cls-7" x1="200.06" y1="1327.28" x2="209.02" y2="1318.31"/>
      <line class="cls-7" x1="229.2" y1="1396.94" x2="241.88" y2="1396.94"/>
      <line class="cls-7" x1="200.55" y1="1466.8" x2="209.52" y2="1475.76"/>
      <line class="cls-7" x1="130.9" y1="1495.94" x2="130.9" y2="1508.62"/>
      <line class="cls-7" x1="61.04" y1="1467.29" x2="52.07" y2="1476.26"/>
      <line class="cls-7" x1="31.9" y1="1397.64" x2="19.21" y2="1397.64"/>
      <line class="cls-7" x1="60.54" y1="1327.78" x2="51.57" y2="1318.81"/>
      <line class="cls-7" x1="130.14" y1="1399.2" x2="186.69" y2="1342.64"/>
      <circle class="cls-9" cx="130.2" cy="1398.35" r="26.42"/>
    </g>
    <path class="cls-8" d="M478.22,2120.17c0-48.32-39.17-87.49-87.49-87.49s-87.49,39.17-87.49,87.49c0,33.54,18.89,62.64,46.6,77.32v47.59h81.77v-47.59c27.71-14.68,46.6-43.78,46.6-77.32Z"/>
    <path class="cls-8" d="M404.01,2237.46v-95.17c0-8.93,7.24-16.17,16.17-16.17h.92c8.93,0,16.17,7.24,16.17,16.17h0c0,8.93-7.24,16.17-16.17,16.17h-60.75c-8.93,0-16.17-7.24-16.17-16.17h0c0-8.93,7.24-16.17,16.17-16.17h.92c8.93,0,16.17,7.24,16.17,16.17v95.17"/>
    <path class="cls-6" d="M439.64,2241.91h-97.81v40.94l20.43,5.2c7.14,6.44,16.57,17.14,26.95,17.14h3.06c10.38,0,19.81-10.7,26.95-17.14l20.43-5.2v-40.94Z"/>
    <g class="cls-15">
      <path class="cls-5" d="M444.51,2246.12h-107.55c-2.58,0-4.68-2.09-4.68-4.68h0c0-2.58,2.09-4.68,4.68-4.68h107.55c2.58,0,4.68,2.09,4.68,4.68h0c0,2.58-2.09,4.68-4.68,4.68Z"/>
      <path class="cls-5" d="M444.51,2266.74h-107.55c-2.58,0-4.68-2.09-4.68-4.68h0c0-2.58,2.09-4.68,4.68-4.68h107.55c2.58,0,4.68,2.09,4.68,4.68h0c0,2.58-2.09,4.68-4.68,4.68Z"/>
      <path class="cls-5" d="M444.51,2287.35h-107.55c-2.58,0-4.68-2.09-4.68-4.68h0c0-2.58,2.09-4.68,4.68-4.68h107.55c2.58,0,4.68,2.09,4.68,4.68h0c0,2.58-2.09,4.68-4.68,4.68Z"/>
    </g>
    <g class="cls-15">
      <path class="cls-16" d="M548.82,1577.59l16.03,14.28,1.73,1.55-17.75-15.78-23.05,58.64,55.68-29.64-.03-.03,112.28-126.02h-.01s18.57-21.34,18.57-21.34c5.01-8.28,3.15-19.63-4.91-26.81-.18-.16-.37-.3-.56-.46-8.03-6.73-19.17-7.13-26.64-1.34l-19.01,20.94-.03-.03-112.29,126.04Z"/>
      <polygon class="cls-13" points="548.83 1577.64 525.78 1636.28 581.47 1606.64 548.83 1577.64"/>
      <polygon class="cls-4" points="548.83 1577.64 525.78 1636.28 581.47 1606.64 548.83 1577.64"/>
      <polygon class="cls-14" points="525.78 1636.28 545.11 1626.02 533.81 1615.95 525.78 1636.28"/>
      <polygon class="cls-4" points="564.85 1591.87 581.42 1606.63 693.71 1480.59 676.92 1465.63 661.11 1451.55 548.82 1577.59 564.85 1591.87"/>
      <path class="cls-4" d="M661,1451.74l15.78,14.05,16.78,14.95,18.71-21.49c5.01-8.28,3.14-19.63-4.91-26.81-.18-.16-.37-.3-.56-.46-8.03-6.73-19.17-7.13-26.64-1.34l-19.15,21.1Z"/>
      <line class="cls-2" x1="676.92" y1="1465.63" x2="564.85" y2="1591.87"/>
    </g>
    <path class="cls-8" d="M775.1,1689.93h-8.92c-1.38-9.13-4.97-17.51-10.24-24.61l6.36-6.36c1.41-1.41,1.41-3.69,0-5.1l-6.55-6.55c-1.41-1.41-3.69-1.41-5.1,0l-6.37,6.37c-7.09-5.23-15.47-8.79-24.58-10.16v-9.05c0-1.99-1.61-3.61-3.61-3.61h-9.26c-1.99,0-3.61,1.61-3.61,3.61v9.05c-9.11,1.36-17.48,4.92-24.57,10.15l-6.39-6.4c-1.41-1.41-3.69-1.41-5.1,0l-6.55,6.55c-1.41,1.41-1.41,3.69,0,5.1l6.38,6.38c-5.26,7.09-8.85,15.46-10.24,24.58h-8.97c-1.99,0-3.61,1.61-3.61,3.61v9.26c0,1.99,1.61,3.61,3.61,3.61h8.93c1.34,9.15,4.91,17.56,10.15,24.69l-6.27,6.27c-1.41,1.41-1.41,3.69,0,5.1l6.55,6.55c1.41,1.41,3.69,1.41,5.1,0l6.25-6.25c7.12,5.29,15.54,8.9,24.7,10.27v8.81c0,1.99,1.61,3.61,3.61,3.61h9.26c1.99,0,3.61-1.61,3.61-3.61v-8.8c9.18-1.36,17.6-4.96,24.73-10.24l6.24,6.23c1.41,1.41,3.69,1.41,5.1,0l6.55-6.55c1.41-1.41,1.41-3.69,0-5.1l-6.24-6.24c5.26-7.13,8.84-15.54,10.19-24.71h8.89c1.99,0,3.61-1.61,3.61-3.61v-9.26c0-1.99-1.61-3.61-3.61-3.61Zm-63.65,27.81c-10.74,0-19.47-8.73-19.47-19.47s8.73-19.47,19.47-19.47,19.47,8.73,19.47,19.47-8.73,19.47-19.47,19.47Z"/>
    <g class="cls-15">
      <g>
        <g>
          <rect class="cls-4" x="916" y="2000.74" width="20.87" height="274.32" transform="translate(2551.8 3807.36) rotate(159.2)"/>
          <polygon class="cls-10" points="867.96 2013.39 887.47 2005.98 857.72 1986.45 867.96 2013.39"/>
        </g>
        <g>
          <rect class="cls-4" x="828.85" y="2087.89" width="20.87" height="274.32" transform="translate(-1538.78 2219.32) rotate(-69.2)"/>
          <polygon class="cls-10" points="714.78 2166.58 707.36 2186.09 687.83 2156.34 714.78 2166.58"/>
        </g>
      </g>
      <path class="cls-7" d="M818.99,2245.71c3.14-9.05,7.11-18.11,11.88-27.04,4.77-8.93,10.35-17.74,16.71-26.29,6.36-8.55,13.51-16.85,21.42-24.76,7.91-7.91,16.21-15.05,24.76-21.42,8.55-6.36,17.36-11.94,26.29-16.71,8.93-4.77,17.99-8.74,27.04-11.88"/>
      <path class="cls-10" d="M1009.56,2333.47l25.3-25.3,35.26,35.26c6.99,6.99,6.99,18.31,0,25.3h0c-6.99,6.99-18.31,6.99-25.3,0l-35.26-35.26Z"/>
      <g>
        <circle class="cls-7" cx="995.85" cy="2294.47" r="42.24"/>
        <path class="cls-9" d="M982.85,2281.46c7.17-7.17,18.84-7.17,26.01,0,7.17,7.17,7.17,18.83,0,26-7.17,7.17-18.83,7.17-26,0-7.17-7.17-7.17-18.84,0-26.01Z"/>
      </g>
    </g>
    <g class="cls-15">
      <path class="cls-14" d="M951.26,1827.32c0,1.83-1.48,3.3-3.3,3.3h-16.52c-1.82,0-3.3-1.48-3.3-3.3s1.48-3.3,3.3-3.3h16.52c1.82,0,3.3,1.48,3.3,3.3Zm-33.04,0c0,1.83-1.48,3.3-3.3,3.3h-16.52c-1.83,0-3.3-1.48-3.3-3.3s1.48-3.3,3.3-3.3h16.52c1.83,0,3.3,1.48,3.3,3.3Zm-33.05,0c0,1.83-1.48,3.3-3.3,3.3h-9.45c-1.82,0-3.3-1.48-3.3-3.3s1.48-3.3,3.3-3.3h9.45c1.82,0,3.3,1.48,3.3,3.3Z"/>
      <path class="cls-14" d="M906.6,1259.33h-75.54c-1.82,0-3.3,1.48-3.3,3.3s1.48,3.3,3.3,3.3h75.54c1.83,0,3.3-1.48,3.3-3.3s-1.48-3.3-3.3-3.3Z"/>
      <path class="cls-14" d="M807.02,1259.31h-14.76c-1.83,0-3.3,1.48-3.3,3.3s1.48,3.3,3.3,3.3h14.76c1.82,0,3.3-1.48,3.3-3.3s-1.48-3.3-3.3-3.3Z"/>
      <path class="cls-14" d="M871.11,1285.64c0,1.82-1.48,3.3-3.3,3.3h-9.45c-1.82,0-3.3-1.48-3.3-3.3s1.48-3.3,3.3-3.3h9.45c1.82,0,3.3,1.48,3.3,3.3Zm-25.97,0c0,1.82-1.48,3.3-3.3,3.3h-16.52c-1.83,0-3.3-1.48-3.3-3.3s1.48-3.3,3.3-3.3h16.52c1.82,0,3.3,1.48,3.3,3.3Zm-33.05,0c0,1.82-1.48,3.3-3.3,3.3h-16.52c-1.82,0-3.3-1.48-3.3-3.3s1.48-3.3,3.3-3.3h16.52c1.82,0,3.3,1.48,3.3,3.3Z"/>
      <path class="cls-14" d="M951.02,1540.42c0,6.45,5.22,11.67,11.67,11.67s11.67-5.22,11.67-11.67-5.22-11.67-11.67-11.67-11.67,5.22-11.67,11.67Z"/>
      <path class="cls-14" d="M688.64,1919.16h-75.54c-1.82,0-3.3,1.48-3.3,3.3s1.48,3.3,3.3,3.3h75.54c1.82,0,3.3-1.48,3.3-3.3s-1.48-3.3-3.3-3.3Z"/>
      <path class="cls-14" d="M589.06,1919.15h-14.76c-1.82,0-3.3,1.48-3.3,3.3s1.48,3.3,3.3,3.3h14.76c1.82,0,3.3-1.48,3.3-3.3s-1.48-3.3-3.3-3.3Z"/>
      <path class="cls-14" d="M653.15,1945.48c0,1.83-1.48,3.3-3.3,3.3h-9.45c-1.83,0-3.3-1.48-3.3-3.3s1.48-3.3,3.3-3.3h9.45c1.82,0,3.3,1.48,3.3,3.3Zm-25.97,0c0,1.83-1.48,3.3-3.3,3.3h-16.52c-1.82,0-3.3-1.48-3.3-3.3s1.48-3.3,3.3-3.3h16.52c1.83,0,3.3,1.48,3.3,3.3Zm-33.05,0c0,1.83-1.48,3.3-3.3,3.3h-16.52c-1.82,0-3.3-1.48-3.3-3.3s1.48-3.3,3.3-3.3h16.52c1.82,0,3.3,1.48,3.3,3.3Z"/>
      <path class="cls-14" d="M1420.38,1467.79c-1.82,0-3.3,1.48-3.3,3.3v7.67c0,1.83,1.48,3.3,3.3,3.3s3.3-1.48,3.3-3.3v-7.67c0-1.83-1.48-3.3-3.3-3.3Z"/>
      <path class="cls-14" d="M1411.73,1460.11h-7.66c-1.82,0-3.3,1.48-3.3,3.3s1.48,3.3,3.3,3.3h7.66c1.82,0,3.3-1.48,3.3-3.3s-1.48-3.3-3.3-3.3Z"/>
      <path class="cls-14" d="M1420.38,1444.22c-1.82,0-3.3,1.48-3.3,3.3v7.66c0,1.83,1.48,3.3,3.3,3.3s3.3-1.48,3.3-3.3v-7.66c0-1.83-1.48-3.3-3.3-3.3Z"/>
      <path class="cls-14" d="M1436.7,1459.58h-7.67c-1.82,0-3.3,1.48-3.3,3.3s1.48,3.3,3.3,3.3h7.67c1.82,0,3.3-1.48,3.3-3.3s-1.48-3.3-3.3-3.3Z"/>
      <path class="cls-14" d="M1275.63,1194.33s2.58,18.38-18.89,17.95c0,0,18.44,.19,17.96,17.43,0,0,1.66-13.57,18.58-16.6,0,0-14.3,3.28-17.64-18.79Z"/>
      <path class="cls-14" d="M491.45,1770.17s1.57,11.22-11.53,10.96c0,0,11.26,.12,10.96,10.64,0,0,1.01-8.28,11.34-10.13,0,0-8.73,2-10.77-11.47Z"/>
      <g>
        <path class="cls-14" d="M1176.23,1350.83h-73.35c-9.38,0-17.02-7.63-17.02-17.02s7.34-16.72,16.47-17.01c.24-14.32,11.96-25.89,26.34-25.89,8.92,0,17.21,4.54,22.06,11.96,9.88-1.41,18.71,4.81,21.21,13.92h4.29c9.38,0,17.02,7.64,17.02,17.02s-7.63,17.02-17.02,17.02Zm-73.35-29c-6.61,0-11.98,5.38-11.98,11.98s5.37,11.98,11.98,11.98h73.35c6.61,0,11.98-5.37,11.98-11.98s-5.37-11.98-11.98-11.98h-8.47l-.34-2.12c-1.27-8.01-8.89-13.61-17.36-11.59l-1.85,.44-.93-1.66c-3.77-6.75-10.9-10.95-18.61-10.95-11.75,0-21.3,9.56-21.3,21.3,0,.62,.04,1.24,.09,1.84l.23,2.73h-4.82Z"/>
        <path class="cls-14" d="M1176.23,1352.45h-73.35c-10.28,0-18.63-8.36-18.63-18.64,0-9.62,7.15-17.48,16.54-18.52,1.02-14.47,13.23-26,27.89-26,9.13,0,17.6,4.41,22.84,11.85,9.55-.9,18.54,4.95,21.62,14.03h3.09c10.28,0,18.64,8.36,18.64,18.64s-8.36,18.64-18.64,18.64Zm-47.56-59.91c-13.4,0-24.49,10.9-24.72,24.3l-.03,1.54-1.54,.05c-8.36,.27-14.9,7.03-14.9,15.39s6.91,15.4,15.4,15.4h73.35c8.49,0,15.4-6.91,15.4-15.4s-6.91-15.4-15.4-15.4h-5.52l-.33-1.19c-2.38-8.65-10.52-14.03-19.42-12.75l-1.02,.15-.57-.86c-4.59-7.03-12.33-11.22-20.7-11.22Zm47.56,54.88h-73.35c-7.5,0-13.6-6.1-13.6-13.6s6.1-13.6,13.6-13.6h3.05l-.08-.97c-.05-.66-.1-1.31-.1-1.98,0-12.64,10.28-22.92,22.92-22.92,8.3,0,15.97,4.51,20.02,11.78l.33,.59,.66-.16c4.41-1.05,8.85-.29,12.51,2.16,3.64,2.44,6.13,6.36,6.83,10.75l.12,.76h7.08c7.5,0,13.6,6.1,13.6,13.6s-6.1,13.6-13.6,13.6Zm-73.35-23.96c-5.71,0-10.36,4.65-10.36,10.36s4.65,10.36,10.36,10.36h73.35c5.71,0,10.36-4.65,10.36-10.36s-4.65-10.36-10.36-10.36h-9.85l-.56-3.49c-.56-3.51-2.53-6.63-5.43-8.57-2.89-1.94-6.43-2.55-9.95-1.7l-3.05,.73-1.53-2.73c-3.48-6.24-10.07-10.12-17.2-10.12-10.85,0-19.68,8.83-19.68,19.68,0,.58,.04,1.15,.09,1.71l.39,4.49h-6.58Z"/>
      </g>
      <path class="cls-14" d="M653.71,1361.52h-7.38v-7.38c0-1.93-1.56-3.5-3.49-3.5s-3.5,1.57-3.5,3.5v7.38h-7.38c-1.93,0-3.5,1.57-3.5,3.5s1.56,3.5,3.5,3.5h7.38v7.38c0,1.93,1.57,3.5,3.5,3.5s3.49-1.56,3.49-3.5v-7.38h7.38c1.93,0,3.5-1.56,3.5-3.5s-1.57-3.5-3.5-3.5Z"/>
      <path class="cls-14" d="M1013.12,1787.25c0,7.35-5.98,13.34-13.33,13.34s-13.34-5.98-13.34-13.34,5.98-13.34,13.34-13.34,13.33,5.98,13.33,13.34Zm-6.61,0c0-3.71-3.02-6.73-6.72-6.73s-6.73,3.02-6.73,6.73,3.02,6.73,6.73,6.73,6.72-3.02,6.72-6.73Z"/>
      <path class="cls-14" d="M1197.73,2039.54c-1.82,0-3.3,1.48-3.3,3.3v7.67c0,1.82,1.48,3.3,3.3,3.3s3.3-1.48,3.3-3.3v-7.67c0-1.83-1.48-3.3-3.3-3.3Z"/>
      <path class="cls-14" d="M1189.08,2031.85h-7.66c-1.82,0-3.3,1.48-3.3,3.3s1.48,3.3,3.3,3.3h7.66c1.82,0,3.3-1.48,3.3-3.3s-1.48-3.3-3.3-3.3Z"/>
      <path class="cls-14" d="M1197.73,2015.97c-1.82,0-3.3,1.48-3.3,3.3v7.66c0,1.83,1.48,3.3,3.3,3.3s3.3-1.48,3.3-3.3v-7.66c0-1.82-1.48-3.3-3.3-3.3Z"/>
      <path class="cls-14" d="M1214.05,2031.32h-7.66c-1.83,0-3.3,1.48-3.3,3.3s1.48,3.3,3.3,3.3h7.66c1.82,0,3.3-1.48,3.3-3.3s-1.48-3.3-3.3-3.3Z"/>
      <path class="cls-14" d="M1282.08,1703.39c1.82,0,3.3-1.48,3.3-3.3v-7.67c0-1.82-1.48-3.3-3.3-3.3s-3.3,1.48-3.3,3.3v7.67c0,1.83,1.48,3.3,3.3,3.3Z"/>
      <path class="cls-14" d="M1290.73,1711.08h7.66c1.83,0,3.3-1.48,3.3-3.3s-1.48-3.3-3.3-3.3h-7.66c-1.82,0-3.3,1.48-3.3,3.3s1.48,3.3,3.3,3.3Z"/>
      <path class="cls-14" d="M1282.08,1726.96c1.82,0,3.3-1.48,3.3-3.3v-7.66c0-1.83-1.48-3.3-3.3-3.3s-3.3,1.48-3.3,3.3v7.66c0,1.82,1.48,3.3,3.3,3.3Z"/>
      <path class="cls-14" d="M1265.76,1711.61h7.66c1.82,0,3.3-1.48,3.3-3.3s-1.48-3.3-3.3-3.3h-7.66c-1.82,0-3.3,1.48-3.3,3.3s1.48,3.3,3.3,3.3Z"/>
      <path class="cls-14" d="M1318.84,2400.18s2.58,18.38-18.89,17.95c0,0,18.44,.19,17.96,17.43,0,0,1.66-13.57,18.58-16.6,0,0-14.3,3.28-17.64-18.79Z"/>
      <path class="cls-14" d="M946.37,1987.61s1.57,11.22-11.53,10.96c0,0,11.26,.12,10.96,10.64,0,0,1.01-8.28,11.34-10.13,0,0-8.73,2-10.77-11.47Z"/>
      <g>
        <path class="cls-14" d="M1397,2198.75h-73.35c-9.38,0-17.02-7.63-17.02-17.02s7.34-16.72,16.47-17.01c.24-14.32,11.96-25.89,26.34-25.89,8.92,0,17.21,4.54,22.06,11.96,9.88-1.41,18.71,4.81,21.21,13.92h4.29c9.38,0,17.02,7.64,17.02,17.02s-7.63,17.02-17.02,17.02Zm-73.35-29c-6.61,0-11.98,5.38-11.98,11.98s5.37,11.98,11.98,11.98h73.35c6.61,0,11.98-5.37,11.98-11.98s-5.37-11.98-11.98-11.98h-8.47l-.34-2.12c-1.27-8.01-8.89-13.61-17.36-11.59l-1.85,.44-.93-1.66c-3.77-6.75-10.9-10.95-18.61-10.95-11.75,0-21.3,9.56-21.3,21.3,0,.62,.04,1.24,.09,1.84l.23,2.73h-4.82Z"/>
        <path class="cls-14" d="M1397,2200.37h-73.35c-10.28,0-18.63-8.36-18.63-18.64,0-9.61,7.15-17.48,16.54-18.52,1.02-14.47,13.23-26,27.89-26,9.13,0,17.6,4.41,22.84,11.85,9.56-.91,18.54,4.95,21.62,14.03h3.09c10.28,0,18.64,8.36,18.64,18.63s-8.36,18.64-18.64,18.64Zm-47.56-59.92c-13.4,0-24.49,10.9-24.72,24.3l-.03,1.54-1.54,.05c-8.36,.27-14.9,7.03-14.9,15.39s6.91,15.4,15.4,15.4h73.35c8.49,0,15.4-6.91,15.4-15.4s-6.91-15.4-15.4-15.4h-5.52l-.33-1.19c-2.38-8.66-10.54-14-19.42-12.75l-1.02,.15-.57-.86c-4.59-7.03-12.33-11.23-20.7-11.23Zm47.56,54.88h-73.35c-7.5,0-13.6-6.1-13.6-13.6s6.1-13.6,13.6-13.6h3.05l-.08-.97c-.05-.66-.1-1.32-.1-1.98,0-12.64,10.28-22.92,22.92-22.92,8.3,0,15.97,4.51,20.02,11.78l.33,.59,.66-.16c4.41-1.05,8.85-.28,12.51,2.16,3.64,2.44,6.13,6.36,6.83,10.75l.12,.75h7.08c7.5,0,13.6,6.1,13.6,13.6s-6.1,13.6-13.6,13.6Zm-73.35-23.96c-5.71,0-10.36,4.65-10.36,10.36s4.65,10.36,10.36,10.36h73.35c5.71,0,10.36-4.65,10.36-10.36s-4.65-10.36-10.36-10.36h-9.85l-.56-3.48c-.56-3.51-2.53-6.63-5.43-8.57-2.9-1.94-6.44-2.54-9.95-1.7l-3.05,.73-1.53-2.73c-3.48-6.24-10.07-10.12-17.2-10.12-10.85,0-19.68,8.83-19.68,19.68,0,.58,.04,1.15,.09,1.71l.39,4.48h-6.58Z"/>
      </g>
      <path class="cls-14" d="M306.01,1164.3c0,1.83-1.48,3.3-3.3,3.3h-16.52c-1.82,0-3.3-1.48-3.3-3.3s1.48-3.3,3.3-3.3h16.52c1.82,0,3.3,1.48,3.3,3.3Zm-33.04,0c0,1.83-1.48,3.3-3.3,3.3h-16.52c-1.82,0-3.3-1.48-3.3-3.3s1.48-3.3,3.3-3.3h16.52c1.82,0,3.3,1.48,3.3,3.3Zm-33.05,0c0,1.83-1.48,3.3-3.3,3.3h-9.45c-1.82,0-3.3-1.48-3.3-3.3s1.48-3.3,3.3-3.3h9.45c1.82,0,3.3,1.48,3.3,3.3Z"/>
      <path class="cls-14" d="M599.32,2418.84h75.54c1.82,0,3.3-1.48,3.3-3.3s-1.48-3.3-3.3-3.3h-75.54c-1.82,0-3.3,1.48-3.3,3.3s1.48,3.3,3.3,3.3Z"/>
      <path class="cls-14" d="M698.9,2418.85h14.76c1.82,0,3.3-1.48,3.3-3.3s-1.48-3.3-3.3-3.3h-14.76c-1.82,0-3.3,1.48-3.3,3.3s1.48,3.3,3.3,3.3Z"/>
      <path class="cls-14" d="M634.81,2392.52c0-1.82,1.48-3.3,3.3-3.3h9.45c1.83,0,3.3,1.48,3.3,3.3s-1.48,3.3-3.3,3.3h-9.45c-1.82,0-3.3-1.48-3.3-3.3Zm25.97,0c0-1.82,1.48-3.3,3.3-3.3h16.52c1.83,0,3.3,1.48,3.3,3.3s-1.48,3.3-3.3,3.3h-16.52c-1.82,0-3.3-1.48-3.3-3.3Zm33.05,0c0-1.82,1.48-3.3,3.3-3.3h16.52c1.82,0,3.3,1.48,3.3,3.3s-1.48,3.3-3.3,3.3h-16.52c-1.82,0-3.3-1.48-3.3-3.3Z"/>
      <path class="cls-14" d="M165.86,2269.02h-7.38v-7.38c0-1.93-1.56-3.5-3.49-3.5s-3.5,1.57-3.5,3.5v7.38h-7.38c-1.93,0-3.5,1.57-3.5,3.5s1.56,3.5,3.5,3.5h7.38v7.38c0,1.93,1.57,3.5,3.5,3.5s3.49-1.56,3.49-3.5v-7.38h7.38c1.93,0,3.5-1.57,3.5-3.5s-1.57-3.5-3.5-3.5Z"/>
      <path class="cls-14" d="M1074.84,2155.1h-7.38v-7.38c0-1.93-1.56-3.5-3.49-3.5s-3.5,1.57-3.5,3.5v7.38h-7.38c-1.93,0-3.49,1.57-3.49,3.5s1.56,3.5,3.49,3.5h7.38v7.38c0,1.93,1.57,3.5,3.5,3.5s3.49-1.56,3.49-3.5v-7.38h7.38c1.93,0,3.5-1.57,3.5-3.5s-1.57-3.5-3.5-3.5Z"/>
    </g>
  </g>
  <g>
    <g class="cls-15">
      <g>
        <line class="cls-7" x1="128.06" y1="2701.17" x2="128.06" y2="2719.14"/>
        <path class="cls-11" d="M128.06,2754.42v396.37c0,53.2,35.07,98.21,83.35,113.16"/>
      </g>
    </g>
    <g class="cls-15">
      <g>
        <path class="cls-7" d="M364.96,2701.17c0-6.09,.46-12.07,1.35-17.91"/>
        <path class="cls-1" d="M377.19,2648.68c19.35-39.09,59.64-65.96,106.21-65.96h0c65.42,0,118.45,53.03,118.45,118.45v449.62c0,65.42,53.03,118.45,118.45,118.45s118.45-53.03,118.45-118.45v-449.62c0-65.42,53.03-118.45,118.45-118.45h0c65.42,0,118.45,53.03,118.45,118.45v449.62c0,65.42,53.03,118.45,118.45,118.45,53.01,0,97.89-34.83,113.01-82.85"/>
        <path class="cls-7" d="M1311.2,3168.7c.89-5.84,1.35-11.82,1.35-17.91"/>
      </g>
      <path class="cls-3" d="M301.77,3342.75c-22.77-22.77-36.85-54.22-36.85-88.96s14.08-66.2,36.85-88.96,54.22-36.85,88.96-36.85,66.2,14.08,88.96,36.85c22.77,22.77,36.85,54.22,36.85,88.96s-14.08,66.19-36.85,88.96"/>
    </g>
    <g class="cls-15">
      <path class="cls-7" d="M128.06,2701.17v449.62c0,65.42,53.03,118.45,118.45,118.45h0"/>
      <path class="cls-7" d="M720.3,3269.23c65.42,0,118.45-53.03,118.45-118.45v-449.62c0-65.42,53.03-118.45,118.45-118.45"/>
      <path class="cls-7" d="M261.66,2590.42c-7.23,17.07-17.69,32.45-30.61,45.36-12.92,12.92-28.3,23.38-45.36,30.61-17.07,7.23-35.82,11.23-55.49,11.23s-38.43-4-55.49-11.23c-17.07-7.23-32.44-17.69-45.36-30.61-12.92-12.92-23.38-28.3-30.61-45.36"/>
      <polyline class="cls-7" points="395.9 2771.88 527.31 2771.88 527.31 2822.93"/>
    </g>
    <g class="cls-15">
      <circle class="cls-12" cx="130.2" cy="2534.92" r="106.75" transform="translate(-1754.33 834.52) rotate(-45)"/>
      <line class="cls-7" x1="130.2" y1="2534.92" x2="130.2" y2="2485.25"/>
      <line class="cls-7" x1="130.2" y1="2435.22" x2="130.2" y2="2422.53"/>
      <line class="cls-7" x1="200.06" y1="2463.86" x2="209.02" y2="2454.89"/>
      <line class="cls-7" x1="229.2" y1="2533.51" x2="241.88" y2="2533.51"/>
      <line class="cls-7" x1="200.55" y1="2603.37" x2="209.52" y2="2612.34"/>
      <line class="cls-7" x1="130.9" y1="2632.52" x2="130.9" y2="2645.2"/>
      <line class="cls-7" x1="61.04" y1="2603.87" x2="52.07" y2="2612.84"/>
      <line class="cls-7" x1="31.9" y1="2534.22" x2="19.21" y2="2534.22"/>
      <line class="cls-7" x1="60.54" y1="2464.36" x2="51.57" y2="2455.39"/>
      <line class="cls-7" x1="130.14" y1="2535.77" x2="186.69" y2="2479.22"/>
      <circle class="cls-9" cx="130.2" cy="2534.92" r="26.42"/>
    </g>
    <path class="cls-8" d="M478.22,3256.75c0-48.32-39.17-87.49-87.49-87.49s-87.49,39.17-87.49,87.49c0,33.54,18.89,62.64,46.6,77.32v47.59h81.77v-47.59c27.71-14.68,46.6-43.78,46.6-77.32Z"/>
    <g class="cls-15">
      <path class="cls-16" d="M548.82,2714.17l16.03,14.28,1.73,1.55-17.75-15.78-23.05,58.64,55.68-29.64-.03-.03,112.28-126.02h-.01s18.57-21.34,18.57-21.34c5.01-8.28,3.15-19.63-4.91-26.81-.18-.16-.37-.3-.56-.46-8.03-6.73-19.17-7.13-26.64-1.34l-19.01,20.94-.03-.03-112.29,126.04Z"/>
      <polygon class="cls-13" points="548.83 2714.22 525.78 2772.86 581.47 2743.22 548.83 2714.22"/>
      <polygon class="cls-4" points="548.83 2714.22 525.78 2772.86 581.47 2743.22 548.83 2714.22"/>
      <polygon class="cls-14" points="525.78 2772.86 545.11 2762.6 533.81 2752.53 525.78 2772.86"/>
      <polygon class="cls-4" points="564.85 2728.45 581.42 2743.21 693.71 2617.17 676.92 2602.21 661.11 2588.13 548.82 2714.17 564.85 2728.45"/>
      <path class="cls-4" d="M661,2588.31l15.78,14.05,16.78,14.95,18.71-21.49c5.01-8.28,3.14-19.63-4.91-26.81-.18-.16-.37-.3-.56-.46-8.03-6.73-19.17-7.13-26.64-1.34l-19.15,21.1Z"/>
      <line class="cls-2" x1="676.92" y1="2602.21" x2="564.85" y2="2728.45"/>
    </g>
    <path class="cls-8" d="M775.1,2826.51h-8.92c-1.38-9.13-4.97-17.51-10.24-24.61l6.36-6.36c1.41-1.41,1.41-3.69,0-5.1l-6.55-6.55c-1.41-1.41-3.69-1.41-5.1,0l-6.37,6.37c-7.09-5.23-15.47-8.79-24.58-10.16v-9.05c0-1.99-1.61-3.61-3.61-3.61h-9.26c-1.99,0-3.61,1.61-3.61,3.61v9.05c-9.11,1.36-17.48,4.92-24.57,10.15l-6.39-6.4c-1.41-1.41-3.69-1.41-5.1,0l-6.55,6.55c-1.41,1.41-1.41,3.69,0,5.1l6.38,6.38c-5.26,7.09-8.85,15.46-10.24,24.58h-8.97c-1.99,0-3.61,1.61-3.61,3.61v9.26c0,1.99,1.61,3.61,3.61,3.61h8.93c1.34,9.15,4.91,17.56,10.15,24.69l-6.27,6.27c-1.41,1.41-1.41,3.69,0,5.1l6.55,6.55c1.41,1.41,3.69,1.41,5.1,0l6.25-6.25c7.12,5.29,15.54,8.9,24.7,10.27v8.81c0,1.99,1.61,3.61,3.61,3.61h9.26c1.99,0,3.61-1.61,3.61-3.61v-8.8c9.18-1.36,17.6-4.96,24.73-10.24l6.24,6.23c1.41,1.41,3.69,1.41,5.1,0l6.55-6.55c1.41-1.41,1.41-3.69,0-5.1l-6.24-6.24c5.26-7.13,8.84-15.54,10.19-24.71h8.89c1.99,0,3.61-1.61,3.61-3.61v-9.26c0-1.99-1.61-3.61-3.61-3.61Zm-63.65,27.81c-10.74,0-19.47-8.73-19.47-19.47s8.73-19.47,19.47-19.47,19.47,8.73,19.47,19.47-8.73,19.47-19.47,19.47Z"/>
    <g class="cls-15">
      <g>
        <rect class="cls-4" x="916" y="3137.32" width="20.87" height="274.32" transform="translate(2955.49 6006.41) rotate(159.2)"/>
        <polygon class="cls-10" points="867.96 3149.97 887.47 3142.55 857.72 3123.02 867.96 3149.97"/>
      </g>
    </g>
    <g class="cls-15">
      <path class="cls-14" d="M951.26,2963.9c0,1.83-1.48,3.3-3.3,3.3h-16.52c-1.82,0-3.3-1.48-3.3-3.3s1.48-3.3,3.3-3.3h16.52c1.82,0,3.3,1.48,3.3,3.3Zm-33.04,0c0,1.83-1.48,3.3-3.3,3.3h-16.52c-1.83,0-3.3-1.48-3.3-3.3s1.48-3.3,3.3-3.3h16.52c1.83,0,3.3,1.48,3.3,3.3Zm-33.05,0c0,1.83-1.48,3.3-3.3,3.3h-9.45c-1.82,0-3.3-1.48-3.3-3.3s1.48-3.3,3.3-3.3h9.45c1.82,0,3.3,1.48,3.3,3.3Z"/>
      <path class="cls-14" d="M906.6,2395.9h-75.54c-1.82,0-3.3,1.48-3.3,3.3s1.48,3.3,3.3,3.3h75.54c1.83,0,3.3-1.48,3.3-3.3s-1.48-3.3-3.3-3.3Z"/>
      <path class="cls-14" d="M807.02,2395.89h-14.76c-1.83,0-3.3,1.48-3.3,3.3s1.48,3.3,3.3,3.3h14.76c1.82,0,3.3-1.48,3.3-3.3s-1.48-3.3-3.3-3.3Z"/>
      <path class="cls-14" d="M871.11,2422.22c0,1.82-1.48,3.3-3.3,3.3h-9.45c-1.82,0-3.3-1.48-3.3-3.3s1.48-3.3,3.3-3.3h9.45c1.82,0,3.3,1.48,3.3,3.3Zm-25.97,0c0,1.82-1.48,3.3-3.3,3.3h-16.52c-1.83,0-3.3-1.48-3.3-3.3s1.48-3.3,3.3-3.3h16.52c1.82,0,3.3,1.48,3.3,3.3Zm-33.05,0c0,1.82-1.48,3.3-3.3,3.3h-16.52c-1.82,0-3.3-1.48-3.3-3.3s1.48-3.3,3.3-3.3h16.52c1.82,0,3.3,1.48,3.3,3.3Z"/>
      <path class="cls-14" d="M951.02,2676.99c0,6.45,5.22,11.67,11.67,11.67s11.67-5.22,11.67-11.67-5.22-11.67-11.67-11.67-11.67,5.22-11.67,11.67Z"/>
      <path class="cls-14" d="M688.64,3055.74h-75.54c-1.82,0-3.3,1.48-3.3,3.3s1.48,3.3,3.3,3.3h75.54c1.82,0,3.3-1.48,3.3-3.3s-1.48-3.3-3.3-3.3Z"/>
      <path class="cls-14" d="M589.06,3055.72h-14.76c-1.82,0-3.3,1.48-3.3,3.3s1.48,3.3,3.3,3.3h14.76c1.82,0,3.3-1.48,3.3-3.3s-1.48-3.3-3.3-3.3Z"/>
      <path class="cls-14" d="M653.15,3082.06c0,1.83-1.48,3.3-3.3,3.3h-9.45c-1.83,0-3.3-1.48-3.3-3.3s1.48-3.3,3.3-3.3h9.45c1.82,0,3.3,1.48,3.3,3.3Zm-25.97,0c0,1.83-1.48,3.3-3.3,3.3h-16.52c-1.82,0-3.3-1.48-3.3-3.3s1.48-3.3,3.3-3.3h16.52c1.83,0,3.3,1.48,3.3,3.3Zm-33.05,0c0,1.83-1.48,3.3-3.3,3.3h-16.52c-1.82,0-3.3-1.48-3.3-3.3s1.48-3.3,3.3-3.3h16.52c1.82,0,3.3,1.48,3.3,3.3Z"/>
      <path class="cls-14" d="M1420.38,2604.37c-1.82,0-3.3,1.48-3.3,3.3v7.67c0,1.83,1.48,3.3,3.3,3.3s3.3-1.48,3.3-3.3v-7.67c0-1.83-1.48-3.3-3.3-3.3Z"/>
      <path class="cls-14" d="M1411.73,2596.68h-7.66c-1.82,0-3.3,1.48-3.3,3.3s1.48,3.3,3.3,3.3h7.66c1.82,0,3.3-1.48,3.3-3.3s-1.48-3.3-3.3-3.3Z"/>
      <path class="cls-14" d="M1420.38,2580.8c-1.82,0-3.3,1.48-3.3,3.3v7.66c0,1.83,1.48,3.3,3.3,3.3s3.3-1.48,3.3-3.3v-7.66c0-1.83-1.48-3.3-3.3-3.3Z"/>
      <path class="cls-14" d="M1436.7,2596.15h-7.67c-1.82,0-3.3,1.48-3.3,3.3s1.48,3.3,3.3,3.3h7.67c1.82,0,3.3-1.48,3.3-3.3s-1.48-3.3-3.3-3.3Z"/>
      <path class="cls-14" d="M1275.63,2330.91s2.58,18.38-18.89,17.95c0,0,18.44,.19,17.96,17.43,0,0,1.66-13.57,18.58-16.6,0,0-14.3,3.28-17.64-18.79Z"/>
      <path class="cls-14" d="M491.45,2906.75s1.57,11.22-11.53,10.96c0,0,11.26,.12,10.96,10.64,0,0,1.01-8.28,11.34-10.13,0,0-8.73,2-10.77-11.47Z"/>
      <g>
        <path class="cls-14" d="M1176.23,2487.41h-73.35c-9.38,0-17.02-7.63-17.02-17.02s7.34-16.72,16.47-17.01c.24-14.32,11.96-25.89,26.34-25.89,8.92,0,17.21,4.54,22.06,11.96,9.88-1.41,18.71,4.81,21.21,13.92h4.29c9.38,0,17.02,7.64,17.02,17.02s-7.63,17.02-17.02,17.02Zm-73.35-29c-6.61,0-11.98,5.38-11.98,11.98s5.37,11.98,11.98,11.98h73.35c6.61,0,11.98-5.37,11.98-11.98s-5.37-11.98-11.98-11.98h-8.47l-.34-2.12c-1.27-8.01-8.89-13.61-17.36-11.59l-1.85,.44-.93-1.66c-3.77-6.75-10.9-10.95-18.61-10.95-11.75,0-21.3,9.56-21.3,21.3,0,.62,.04,1.24,.09,1.84l.23,2.73h-4.82Z"/>
        <path class="cls-14" d="M1176.23,2489.03h-73.35c-10.28,0-18.63-8.36-18.63-18.64,0-9.62,7.15-17.48,16.54-18.52,1.02-14.47,13.23-26,27.89-26,9.13,0,17.6,4.41,22.84,11.85,9.55-.9,18.54,4.95,21.62,14.03h3.09c10.28,0,18.64,8.36,18.64,18.64s-8.36,18.64-18.64,18.64Zm-47.56-59.91c-13.4,0-24.49,10.9-24.72,24.3l-.03,1.54-1.54,.05c-8.36,.27-14.9,7.03-14.9,15.39s6.91,15.4,15.4,15.4h73.35c8.49,0,15.4-6.91,15.4-15.4s-6.91-15.4-15.4-15.4h-5.52l-.33-1.19c-2.38-8.65-10.52-14.03-19.42-12.75l-1.02,.15-.57-.86c-4.59-7.03-12.33-11.22-20.7-11.22Zm47.56,54.88h-73.35c-7.5,0-13.6-6.1-13.6-13.6s6.1-13.6,13.6-13.6h3.05l-.08-.97c-.05-.66-.1-1.31-.1-1.98,0-12.64,10.28-22.92,22.92-22.92,8.3,0,15.97,4.51,20.02,11.78l.33,.59,.66-.16c4.41-1.05,8.85-.29,12.51,2.16,3.64,2.44,6.13,6.36,6.83,10.75l.12,.76h7.08c7.5,0,13.6,6.1,13.6,13.6s-6.1,13.6-13.6,13.6Zm-73.35-23.96c-5.71,0-10.36,4.65-10.36,10.36s4.65,10.36,10.36,10.36h73.35c5.71,0,10.36-4.65,10.36-10.36s-4.65-10.36-10.36-10.36h-9.85l-.56-3.49c-.56-3.51-2.53-6.63-5.43-8.57-2.89-1.94-6.43-2.55-9.95-1.7l-3.05,.73-1.53-2.73c-3.48-6.24-10.07-10.12-17.2-10.12-10.85,0-19.68,8.83-19.68,19.68,0,.58,.04,1.15,.09,1.71l.39,4.49h-6.58Z"/>
      </g>
      <path class="cls-14" d="M653.71,2498.1h-7.38v-7.38c0-1.93-1.56-3.5-3.49-3.5s-3.5,1.57-3.5,3.5v7.38h-7.38c-1.93,0-3.5,1.57-3.5,3.5s1.56,3.5,3.5,3.5h7.38v7.38c0,1.93,1.57,3.5,3.5,3.5s3.49-1.56,3.49-3.5v-7.38h7.38c1.93,0,3.5-1.56,3.5-3.5s-1.57-3.5-3.5-3.5Z"/>
      <path class="cls-14" d="M1013.12,2923.82c0,7.35-5.98,13.34-13.33,13.34s-13.34-5.98-13.34-13.34,5.98-13.34,13.34-13.34,13.33,5.98,13.33,13.34Zm-6.61,0c0-3.71-3.02-6.73-6.72-6.73s-6.73,3.02-6.73,6.73,3.02,6.73,6.73,6.73,6.72-3.02,6.72-6.73Z"/>
      <path class="cls-14" d="M1197.73,3176.12c-1.82,0-3.3,1.48-3.3,3.3v7.67c0,1.82,1.48,3.3,3.3,3.3s3.3-1.48,3.3-3.3v-7.67c0-1.83-1.48-3.3-3.3-3.3Z"/>
      <path class="cls-14" d="M1189.08,3168.43h-7.66c-1.82,0-3.3,1.48-3.3,3.3s1.48,3.3,3.3,3.3h7.66c1.82,0,3.3-1.48,3.3-3.3s-1.48-3.3-3.3-3.3Z"/>
      <path class="cls-14" d="M1197.73,3152.55c-1.82,0-3.3,1.48-3.3,3.3v7.66c0,1.83,1.48,3.3,3.3,3.3s3.3-1.48,3.3-3.3v-7.66c0-1.82-1.48-3.3-3.3-3.3Z"/>
      <path class="cls-14" d="M1214.05,3167.9h-7.66c-1.83,0-3.3,1.48-3.3,3.3s1.48,3.3,3.3,3.3h7.66c1.82,0,3.3-1.48,3.3-3.3s-1.48-3.3-3.3-3.3Z"/>
      <path class="cls-14" d="M1282.08,2839.97c1.82,0,3.3-1.48,3.3-3.3v-7.67c0-1.82-1.48-3.3-3.3-3.3s-3.3,1.48-3.3,3.3v7.67c0,1.83,1.48,3.3,3.3,3.3Z"/>
      <path class="cls-14" d="M1290.73,2847.66h7.66c1.83,0,3.3-1.48,3.3-3.3s-1.48-3.3-3.3-3.3h-7.66c-1.82,0-3.3,1.48-3.3,3.3s1.48,3.3,3.3,3.3Z"/>
      <path class="cls-14" d="M1282.08,2863.54c1.82,0,3.3-1.48,3.3-3.3v-7.66c0-1.83-1.48-3.3-3.3-3.3s-3.3,1.48-3.3,3.3v7.66c0,1.82,1.48,3.3,3.3,3.3Z"/>
      <path class="cls-14" d="M1265.76,2848.18h7.66c1.82,0,3.3-1.48,3.3-3.3s-1.48-3.3-3.3-3.3h-7.66c-1.82,0-3.3,1.48-3.3,3.3s1.48,3.3,3.3,3.3Z"/>
      <path class="cls-14" d="M946.37,3124.19s1.57,11.22-11.53,10.96c0,0,11.26,.12,10.96,10.64,0,0,1.01-8.28,11.34-10.13,0,0-8.73,2-10.77-11.47Z"/>
      <path class="cls-14" d="M306.01,2300.88c0,1.83-1.48,3.3-3.3,3.3h-16.52c-1.82,0-3.3-1.48-3.3-3.3s1.48-3.3,3.3-3.3h16.52c1.82,0,3.3,1.48,3.3,3.3Zm-33.04,0c0,1.83-1.48,3.3-3.3,3.3h-16.52c-1.82,0-3.3-1.48-3.3-3.3s1.48-3.3,3.3-3.3h16.52c1.82,0,3.3,1.48,3.3,3.3Zm-33.05,0c0,1.83-1.48,3.3-3.3,3.3h-9.45c-1.82,0-3.3-1.48-3.3-3.3s1.48-3.3,3.3-3.3h9.45c1.82,0,3.3,1.48,3.3,3.3Z"/>
    </g>
  </g>
</svg>