<?xml version="1.0" encoding="UTF-8"?>
<svg id="Layer_1" data-name="Layer 1" xmlns="http://www.w3.org/2000/svg" viewBox="0 0 108.55 106.75">
  <defs>
    <style>
      .cls-1 {
        fill: #006bd2;
      }
    </style>
  </defs>
  <path class="cls-1" d="M41.83,3.46c-.42,.09-.84,.14-1.25,.26-4.31,1.28-8.47,2.9-12.35,5.19-1.85,1.09-3.45,2.48-4.98,3.98-2.74,2.68-4.95,5.75-6.78,9.11-.03,.05-.03,.12-.06,.27,.2,.16,.43,.35,.68,.53,2.3,1.61,4.11,3.64,5.14,6.29,1,2.58,.95,5.2,.23,7.82-.28,1.04-.79,1.27-1.83,.83-2.89-1.22-5.31-3-6.83-5.83-.07-.13-.16-.25-.3-.48-.12,.24-.23,.38-.25,.52-.21,2.34-.24,4.69,.16,7.02,.85,4.94,2.9,9.27,6.48,12.85,1.57,1.57,3.22,2.98,5.36,3.69,2.58,.86,5.1,.84,7.48-.64,1.11-.69,1.86-1.71,2.38-2.9,1.16-2.66,.88-5.96-1.2-8.03-1.36-1.35-3.57-2.26-5.85-1.02-1.81,.98-2.21,3.14-.81,4.7,.16,.18,.37,.34,.52,.53,.32,.41,.31,.73,.02,1.09-.34,.41-.68,.51-1.15,.28-.76-.37-1.24-1.02-1.58-1.76-.47-1.04-.62-2.13-.44-3.26,.23-1.47,1.17-2.45,2.4-3.12,2.52-1.37,4.99-1.13,7.33,.49,1.77,1.22,2.82,2.96,3.15,5.05,.62,3.89-.54,7.14-3.76,9.52-1.28,.95-2.79,1.31-4.34,1.45-1.51,.15-3.03,.05-4.49-.44-.14-.05-.29-.07-.58-.15,.56,1.28,1.14,2.41,1.56,3.6,.42,1.18,.68,2.42,1.05,3.76,.26-.06,.57-.13,.88-.21,2.1-.58,4.2-.99,6.38-.46,2.42,.59,3.42,2.53,2.68,5-.21,.7-.6,1.35-.99,1.97-.27,.42-.23,.67,.07,1.05,.45,.58,.86,1.21,1.18,1.86,1.28,2.6-.71,6.03-3.81,6.68-3.33,.69-5.81-1.22-7.01-3.59-.34-.68-.72-1.02-1.51-1.12-.98-.12-1.88-.58-2.64-1.25-.65-.57-.95-1.28-.98-2.12-.03-.92,.21-1.78,.64-2.58,.66-1.23,1.4-2.42,2.48-3.32,.63-.53,.76-1.1,.62-1.88-.74-4.04-2.52-7.56-5.44-10.43-3.06-3-5.4-6.42-6.79-10.47-1.13-3.28-1.56-6.65-1.36-10.12,.29-4.81,1.68-9.27,4.04-13.45,.28-.5,.53-1.01,.8-1.51-.05-.03-.1-.07-.15-.1-.55,.61-1.11,1.2-1.64,1.83-2.49,2.97-4.68,6.14-6.47,9.58-2.12,4.07-3.78,8.32-4.77,12.8-1.35,6.09-1.63,12.25-.8,18.43,.98,7.35,3.44,14.2,7.3,20.54,.94,1.54,1.93,3.02,3.58,3.92,1.33,.73,2.72,1.33,4.18,1.74,2.8,.79,5.66,1.28,8.54,1.65,1.96,.26,3.92,.55,5.84,.97,3.03,.67,5.69,2.18,8.21,3.95,3.71,2.62,6.9,5.8,9.85,9.23,.2,.23,.4,.48,.53,.75,.39,.79,.1,1.35-.78,1.44-.83,.08-1.67,.12-2.5,.1-2.69-.06-5.36-.28-8-.81-2.91-.59-5.73-1.48-8.47-2.63-3.72-1.57-7.16-3.61-10.37-6.06-4.01-3.05-7.6-6.53-10.49-10.66-3.32-4.73-5.81-9.9-7.47-15.45C.92,65.36,.24,60.7,.04,55.96c-.15-3.6,.15-7.16,.76-10.7,.85-4.99,2.27-9.8,4.49-14.36,3.24-6.66,7.56-12.5,13.17-17.38,4.01-3.49,8.42-6.37,13.25-8.59,3.74-1.72,7.62-3.04,11.68-3.82C46.51,.51,49.64,.1,52.84,.02c5.83-.14,11.52,.56,17.1,2.23,5.76,1.73,11.09,4.34,15.97,7.84,5.8,4.15,10.58,9.27,14.38,15.31,3.51,5.57,5.9,11.59,7.19,18.05,1.1,5.53,1.33,11.1,.75,16.69-.47,4.56-1.55,8.99-3.18,13.28-1.55,4.09-3.53,7.96-5.99,11.57-2.13,3.12-4.58,5.97-7.32,8.59-4.86,4.64-10.38,8.27-16.58,10.82-2.05,.84-4.18,1.5-6.28,2.21-.31,.11-.67,.15-1,.13-5.28-.26-9.63-2.39-13.06-6.43-2.78-3.27-4.32-7.08-5.04-11.27-.34-2.02-.49-4.05-.39-6.09,.14-2.74,.8-5.36,1.78-7.92,.25-.65,.33-1.37,.41-2.06,.19-1.75,.27-3.51,.53-5.25,.28-1.88,1.26-3.48,2.38-4.97,1.1-1.45,2.27-2.85,3.41-4.27,.61-.75,.71-1.96,.08-2.68-.25-.28-.74-.43-1.15-.49-1.93-.28-3.56-1.18-5.01-2.43-2.05-1.77-2.81-4.13-3.13-6.72-.16-1.32-.35-2.63-.6-3.94-.35-1.83-1.39-3.29-2.69-4.56-1.06-1.03-2.18-2.01-3.29-3-3.74-3.32-5.77-7.57-6.76-12.38-.47-2.28-.64-4.58-.32-6.91,.52-3.79,2.3-6.94,4.86-9.7,.65-.7,1.38-1.31,2.08-1.96-.05-.09-.09-.17-.14-.26Zm24.15,60.86c.21,.12,.38,.19,.53,.3,1.7,1.33,3.62,2.25,5.69,2.8,1.95,.52,3.89,.52,5.79-.36,1.78-.82,2.9-1.99,2.8-4.11-.06-1.3,.18-2.58,.7-3.8,.34-.79,.61-1.62,.96-2.41,.93-2.03,1.37-4.1,.73-6.3-.23-.8-.51-1.59-.82-2.35-1.41-3.47-3.81-6.03-7.24-7.56-3.16-1.41-6.33-1.44-9.45,.19-1.62,.85-2.88,2.1-4.06,3.46-1.21,1.4-1.92,3.02-2.16,4.83-.29,2.26,.04,4.49,.56,6.69,0,.03,.09,.05,.21,.11,.28-.29,.56-.61,.86-.91,1.7-1.72,3.49-3.33,5.76-4.28,1.17-.49,2.38-.67,3.62-.35,1.53,.4,2.43,1.73,2.19,3.28-.32,2.05-1.24,3.86-2.38,5.57-.44,.67-.89,1.34-1.25,2.05-.61,1.18-1.36,2.2-2.61,2.77-.1,.05-.18,.15-.43,.37Zm-8.72,4.83c-.23,.2-.4,.31-.52,.46-.35,.43-.68,.88-1.02,1.32-2.74,3.51-4.17,7.52-4.45,11.95-.21,3.27,.2,6.47,1.28,9.57,1.37,3.95,3.54,7.31,7.08,9.69,2.33,1.57,4.88,2.48,7.69,2.63,1.39,.08,2.62-.49,4.08-.88-.32-.26-.49-.42-.69-.54-3.82-2.35-6.76-5.56-8.97-9.43-2.56-4.46-3.88-9.33-4.34-14.43-.3-3.3-.27-6.6-.04-9.9,0-.11-.04-.22-.09-.44Zm34.95,21.11c3.08-2.86,7.73-9.31,10.39-15.84,2.42-5.92,3.79-12.07,3.97-18.47,.18-6.39-.75-12.61-2.83-18.68-1.69-4.95-7.45-15.14-9.48-16.34,.29,.51,.51,.91,.76,1.29,1.89,2.99,3.33,6.19,4.52,9.52,1.76,4.93,2.7,10,2.9,15.23,.23,6.23-.59,12.32-2.31,18.31-.44,1.54-.84,3.08-.9,4.71-.1,2.53-.48,5.04-1.19,7.49-1.28,4.42-3.08,8.59-5.72,12.38-.06,.09-.06,.21-.11,.41Zm-18.67,12.67c.76-.29,1.13-.77,1.5-1.27,1.84-2.46,1.74-5.25,1.38-8.08-.07-.56-.4-.84-1-.88-.85-.05-1.53-.48-2.03-1.15-.43-.57-.85-1.14-1.21-1.75-.78-1.31-1.72-2.48-2.84-3.52-1.71-1.59-3.68-2.8-5.62-4.06-1.42-.93-2.87-1.82-3.96-3.17-.11-.13-.26-.23-.4-.35-.05,.12-.1,.17-.1,.22,.04,.4,.09,.8,.14,1.2,.48,3.88,1.41,7.64,3.12,11.18,1.65,3.42,3.88,6.39,6.86,8.74,1.33,1.05,2.78,1.94,4.16,2.9Zm1.91-70.14c.06-.05,.11-.11,.17-.16-.23-.21-.43-.46-.69-.63-1.83-1.19-3.41-2.67-4.73-4.38-2.41-3.11-4.13-6.59-5.01-10.44-.45-1.95-.76-3.94-1.13-5.91-.63-3.33-2.22-6.05-5.01-8.04-.74-.52-1.5-1.02-2.41-1.1-1.2-.11-2.4-.11-3.6-.14-.07,0-.15,.08-.25,.15,.06,.28,.11,.55,.19,.81,1.1,4.03,2.48,7.95,4.33,11.7,2.37,4.79,5.32,9.17,9.25,12.86,2.59,2.44,5.62,4.07,8.91,5.29Zm-.23-2.85c.08-.04,.15-.08,.23-.12,.07-.98,.16-1.95,.22-2.93,.14-2.37,.28-4.74,.38-7.11,.09-2.4-.61-4.64-1.63-6.77-1.75-3.63-4.44-6.5-7.46-9.1-.25-.22-.56-.42-.88-.5-1.45-.36-2.92-.67-4.43-1.01,.03,.19,.02,.3,.06,.36,.1,.15,.23,.29,.36,.42,1.22,1.13,2.07,2.53,2.77,4.01,.81,1.72,1.17,3.57,1.47,5.43,.53,3.33,1.27,6.6,2.86,9.62,1.05,2.01,2.19,3.94,3.76,5.58,.72,.75,1.53,1.41,2.3,2.1Zm-37.71-7.5c-.06,.03-.12,.06-.18,.1,.13,.47,.27,.93,.4,1.4,1.09,3.95,3.18,7.27,6.33,9.91,.73,.61,1.43,1.27,2.14,1.91,2.17,1.98,3.64,4.33,3.99,7.31,.13,1.16,.32,2.32,.51,3.48,.27,1.67,.74,3.24,1.95,4.51,1.35,1.41,3,2.18,4.94,2.57,0-.31,.01-.52,0-.73-.12-1.95-.17-3.88,.34-5.8,.08-.31,.04-.69-.07-.99-.8-2.35-1.81-4.6-3.34-6.58-.76-.97-1.6-1.88-2.41-2.82-1.32-1.53-2.34-3.19-2.32-5.3,0-.58-.41-.76-.85-.96-3.36-1.53-6.43-3.54-9.25-5.92-.77-.65-1.47-1.39-2.2-2.09Zm28.11,43.93c-.07,.15-.11,.21-.11,.26,.02,.15,.04,.31,.09,.45,.41,1.17,1.13,2.1,2.13,2.84,1.06,.79,2.12,1.61,3.1,2.5,1.31,1.19,2.38,2.58,3.2,4.17,.27,.52,.28,1.03,.14,1.6-.61,2.59-1.02,5.22-.79,7.89,.12,1.39,.42,2.75,1.23,3.94,.63,.93,1.32,1.14,2.31,.62,.65-.34,1.29-.75,1.81-1.27,2.22-2.19,4.4-4.42,6.58-6.65,.2-.21,.42-.55,.39-.8-.08-.75-.27-1.49-.43-2.33-.26,.16-.41,.21-.5,.32-.87,.95-1.94,1.62-3.11,2.13-.72,.31-1.31,.79-1.8,1.42-.2,.26-.45,.51-.73,.7-.34,.24-.71,.16-1.03-.1-.33-.28-.43-.69-.21-1.08,.13-.24,.31-.46,.49-.68,.36-.46,.83-.86,1.09-1.37,.93-1.79,1.55-3.69,1.85-5.7,.08-.56-.11-1.02-.49-1.43-.72-.78-1.6-1.24-2.63-1.44-.51-.1-1.02-.22-1.53-.35-.69-.17-1.03-.63-1.1-1.32-.03-.33-.07-.66-.11-1.02-3.71,.11-6.88-1.28-9.83-3.3Zm22.38-48.04s-.07,.03-.1,.05c.01,.08,0,.17,.04,.25,.68,1.86,1.27,3.73,1.62,5.69,.9,4.97,.61,9.81-1.1,14.6-1.11,3.11-1.94,6.31-2.82,9.49-.31,1.12-.45,2.28-.23,3.48,.12,.68,.06,1.44-.12,2.11-.36,1.34-.85,2.64-1.29,3.95-.43,1.29-.87,2.57-1.28,3.86-.06,.2,0,.44,0,.65,.1,.05,.19,.11,.29,.16,.17-.25,.33-.51,.52-.76,1.09-1.42,2.25-2.79,3.26-4.27,2.68-3.89,4.88-8,5.99-12.65,1.36-5.67,1.12-11.28-.48-16.85-.9-3.13-2.29-6.07-3.79-8.95-.15-.29-.34-.55-.51-.83Zm-7.32,23.63c.05-.02,.1-.04,.15-.06,0-.11,0-.22,0-.33-.08-1.11-.26-2.21-.24-3.32,.05-3.92,.79-7.73,1.93-11.47,.61-2.01,.85-4.04,.7-6.13-.29-3.94-1.51-7.62-3.07-11.2-.28-.65-.78-1.1-1.43-1.39-2.45-1.08-4.91-2.17-7.36-3.25-.11-.05-.25-.04-.52-.09,.2,.25,.29,.36,.38,.48,1.1,1.37,2.29,2.68,3.29,4.12,2.34,3.36,3.64,7.08,3.49,11.21-.1,2.59-.26,5.18-.48,7.77-.36,4.38,.29,8.56,2.37,12.47,.22,.42,.53,.8,.8,1.19ZM43.36,5c-1.67,1.41-2.94,2.92-4.06,4.56-.41,.6-.41,.75,.03,1.32,.45,.59,.9,1.18,1.38,1.74,4.33,5.15,9.16,9.76,14.72,13.61,3.61,2.5,7.47,4.45,11.59,5.93,1.24,.44,2.52,.76,3.78,1.14,.03-.06,.06-.11,.09-.17-12.46-6.13-21.22-15.89-27.52-28.12ZM18.93,89.8s-.05,.1-.07,.15c.23,.18,.45,.37,.7,.52,1.46,.95,3.06,1.61,4.72,2.11,2.07,.62,4.16,1.14,6.25,1.69,3.04,.8,5.91,1.98,8.5,3.78,.4,.28,.8,.58,1.16,.92,.39,.37,.42,.83,.17,1.17-.29,.38-.68,.5-1.15,.3-.31-.13-.59-.34-.86-.53-1.76-1.22-3.58-2.33-5.64-2.95-2.12-.64-4.27-1.19-6.41-1.78-1.87-.51-3.76-1-5.5-1.89-.54-.28-1.05-.59-1.58-.88l-.1,.17c3.98,3.44,8.38,6.23,13.29,8.17,4.82,1.9,9.81,2.99,15.21,2.93-.3-.37-.47-.62-.67-.83-2.3-2.46-4.71-4.8-7.42-6.82-3.43-2.56-7.19-4.24-11.49-4.74-2.85-.33-5.7-.67-8.48-1.42-.19-.05-.4-.03-.61-.04Zm72.46-2.3s.08,.02,.12,.03c.08-.13,.17-.25,.25-.38,1.39-2.17,2.38-4.53,3.33-6.92,1-2.51,1.72-5.1,2-7.78,.51-4.87,.09-9.68-.99-14.45-.58-2.56-1.02-5.14-1.51-7.72-.1-.54-.19-1.08-.28-1.62-.28,.3-.42,.58-.47,.88-.47,2.7-1,5.4-1.37,8.12-.4,2.93-.05,5.86,.26,8.78,.32,2.95,.61,5.9,.61,8.87,0,2.6-.28,5.18-.85,7.72-.34,1.5-.73,2.98-1.09,4.47Zm.71-66.28c-.04,.21-.07,.27-.05,.32,.1,.26,.2,.52,.31,.77,2.4,5.16,3.46,10.6,3.36,16.28-.03,1.42-.05,2.84,0,4.26,.18,4.27,.78,8.48,1.75,12.64,.36,1.53,.63,3.08,.93,4.62,.07,.33,.11,.67,.18,1,.07,.33,.18,.65,.27,.98,3.42-14.55,1.51-28.17-6.76-40.87Zm-29.39,11.41c-.56-.26-1.11-.51-1.67-.77-1.06-.51-2.16-.95-3.15-1.56-3.02-1.86-5.95-3.86-8.66-6.17-4.05-3.46-7.79-7.21-11.03-11.45-.08-.11-.21-.18-.35-.29-.09,.17-.16,.27-.2,.38-.64,1.56-.7,3.25-.97,4.89-.05,.31,.06,.69,.21,.97,.22,.43,.51,.85,.83,1.21,3.55,4.08,7.94,7.02,12.82,9.24,3.88,1.77,7.95,2.99,12.18,3.54Zm27.89,23.09c-.18,.16-.28,.22-.34,.31-.53,.8-1.07,1.59-1.55,2.41-.33,.55-.65,1.13-.85,1.74-.95,2.95-1.42,6-1.52,9.09-.06,1.88,.03,3.76,.19,5.63,.14,1.62,.37,3.26,.75,4.84,.68,2.79,1.29,5.59,1.44,8.47,0,.18,.06,.36,.1,.54,.32-.73,.51-1.45,.72-2.15,1.21-4.05,1.98-8.16,1.73-12.41-.14-2.37-.4-4.74-.6-7.1-.24-2.86-.46-5.72-.29-8.6,.05-.88,.14-1.76,.22-2.77Zm-36.87,14.51c.2-.21,.41-.41,.58-.64,1.83-2.44,4.1-4.36,6.82-5.71,1.1-.54,2.25-1.06,3.43-1.33,1.27-.29,2.1-.91,2.67-2.03,.42-.82,.91-1.61,1.42-2.37,.94-1.39,1.67-2.88,2.04-4.53,.19-.84-.15-1.4-.99-1.58-.37-.08-.8-.03-1.18,.05-1.36,.29-2.5,1.02-3.6,1.84-1.8,1.34-3.25,3.01-4.69,4.71-1.69,2-3.43,3.96-4.9,6.14-1.11,1.64-1.45,3.48-1.61,5.45Zm30.92-54.17s-.1,.05-.15,.08c.04,.18,.08,.36,.11,.53,.83,3.71,.88,7.39-.24,11.08-.91,2.99-1.55,6.04-1.65,9.18-.08,2.6-.05,5.19,.59,7.73,.15,.61,.3,1.23,.71,1.82,.09-.18,.17-.29,.19-.4,.69-3.05,1.79-5.97,2.77-8.93,.86-2.6,1.24-5.3,1.12-8.03-.19-4.02-1.23-7.86-2.74-11.58-.21-.51-.48-.99-.72-1.48Zm1.62,68.58c-.26,.21-.39,.3-.49,.4-1.52,1.54-3.01,3.1-4.55,4.62-.92,.91-1.82,1.86-3,2.44-.42,.21-.56,.56-.41,1.01,.44,1.29,.4,2.62,.35,3.94-.05,1.33-.28,2.63-.87,3.85-.07,.14-.05,.32-.09,.57,.43-.22,.74-.41,1.07-.56,1.97-.94,3.7-2.2,5.21-3.79,1.82-1.93,3.01-4.16,3.12-6.83,.06-1.6-.07-3.2-.13-4.81,0-.23-.11-.46-.21-.83ZM50.66,2.24c-1.76-.08-4.66,.84-5.51,1.73,3.73,7.5,8.64,14.12,15.04,19.61-4.65-6.44-7.57-13.66-9.53-21.33ZM27.04,67.64c0,.71-.01,1.17,0,1.62,.03,1.14,.08,2.28,.11,3.42,.03,1.1,.33,2.13,.76,3.12,.46,1.05,1.18,1.87,2.15,2.48,1.25,.78,3.55,.69,4.77-.66,.87-.97,1.1-2.22,.4-3.31-.52-.82-1.16-1.6-1.89-2.26-1-.91-2.1-1.71-3.21-2.49-.93-.65-1.92-1.2-3.1-1.93Zm44.2,17.74c.05-.69-.26-1.12-.48-1.58-1.28-2.63-3.21-4.75-5.41-6.62-1.67-1.43-2.83-3.16-3.45-5.25-.51-1.71-.46-3.48-.38-5.24,.01-.26,0-.51,0-.86-1.13,.52-1.9,1.15-2.07,2.38-.26,1.91-.38,3.83-.02,5.72,.39,2.01,1.3,3.8,3,5.05,.87,.64,1.76,1.25,2.66,1.84,1.85,1.22,3.75,2.38,5.36,3.94,.21,.21,.46,.37,.78,.62ZM15.8,24.12c-.18,.27-.35,.46-.43,.68-.8,2.04-.92,4.08,.07,6.1,.77,1.57,1.99,2.75,3.41,3.71,.59,.4,1.19,.84,2.02,.98,.25-2.01,.26-3.92-.42-5.8-.86-2.4-2.58-4.08-4.65-5.66Zm66.54,55.16c1.12-.7,1.96-1.6,2.09-2.96,.05-.49,.04-.99,.01-1.48-.19-3.4-.26-6.79,.38-10.15,.09-.46,.13-.94,.22-1.54-.21,.15-.33,.2-.4,.29-.96,1.05-1.89,2.12-2.87,3.14-.51,.53-1.07,1.02-1.66,1.46-.57,.42-1.21,.75-1.8,1.14-.32,.21-.74,.36-.74,.86,.05,.05,.08,.12,.13,.14,.26,.08,.53,.16,.79,.23,1.67,.47,3.22,1.13,4.2,2.66,.24,.38,.48,.83,.51,1.26,.05,.73,0,1.48-.14,2.2-.17,.93-.47,1.84-.71,2.75Zm-18.88-13.07c-.05,.45-.14,.75-.11,1.03,.09,1.07,.18,2.15,.33,3.21,.27,1.94,1.12,3.58,2.6,4.88,1.82,1.59,3.48,3.33,4.9,5.29,.11,.15,.28,.26,.52,.47,.2-1.19,.41-2.25,.55-3.32,.03-.27-.1-.62-.26-.86-.66-.93-1.27-1.92-2.08-2.71-1.15-1.11-2.45-2.07-3.71-3.05-.98-.76-1.69-1.71-2.1-2.87-.22-.62-.39-1.27-.63-2.07Zm-1.69-25.11c-.29-.25-.57-.48-.83-.73-.41-.38-.85-.73-1.19-1.16-1.18-1.48-2.18-3.09-2.59-4.97-.15-.69-.55-.95-1.16-1.12-1.21-.34-2.41-.74-3.62-1.1-.18-.06-.38-.06-.61-.1,.45,1.76,1.45,3.08,2.61,4.3,1.72,1.81,3.04,3.89,4.17,6.09,.26,.51,.45,1.05,.7,1.64,.86-.97,1.65-1.86,2.53-2.85Zm-27.59,28.98c.64-.47,.73-1.18,.93-1.8,.41-1.29-.03-2.07-1.33-2.45-.29-.08-.6-.16-.9-.15-1.22,.07-2.45,.18-3.67,.28-.16,.01-.32,.11-.6,.21,1.94,1.35,3.75,2.62,5.58,3.9Zm31.52-31.41c-.08-.13-.1-.2-.15-.22-1.56-.88-2.81-2.08-3.88-3.5-.19-.25-.51-.45-.81-.56-.48-.17-.99-.24-1.63-.38,.24,.6,.41,1.08,.62,1.54,.66,1.45,1.56,2.72,2.87,3.66,.53,.38,1.01,.52,1.6,.13,.41-.27,.88-.44,1.37-.68Zm5.73-1.08c-.75-.84-1.53-1.51-2.39-2.07-.07-.05-.18-.04-.27-.05-1.43-.16-2.85-.32-4.28-.47,1.29,1.37,2.81,2.27,4.69,2.45,.7,.06,1.4,.09,2.24,.15ZM25.28,74.11c-.05-1.95-.1-3.7-.15-5.46-.07-.02-.14-.03-.21-.05-.82,.98-1.47,2.08-1.79,3.33-.14,.54,.08,1.06,.57,1.37,.46,.29,.97,.5,1.58,.81Zm50.59-38.49h-3.21c.89,1.06,2.6,2.3,3.95,2.89-.25-1-.49-1.94-.74-2.89Z"/>
</svg>