<?xml version="1.0" encoding="UTF-8"?>
<svg id="Layer_1" data-name="Layer 1" xmlns="http://www.w3.org/2000/svg" viewBox="0 0 217.47 31.03">
  <defs>
    <style>
      .cls-1 {
        fill: none;
      }

      .cls-2 {
        fill: #006bd2;
      }
    </style>
  </defs>
  <g>
    <path class="cls-1" d="M57.64,10.78c-1.05-.48-2.19-.72-3.38-.72s-2.34,.24-3.4,.72c-1.08,.49-2.03,1.15-2.83,1.97-.8,.82-1.44,1.79-1.91,2.88-.46,1.08-.7,2.23-.7,3.41s.23,2.32,.7,3.39c.47,1.09,1.11,2.06,1.91,2.89,.8,.83,1.74,1.49,2.81,1.98,2.1,.96,4.73,.96,6.81,0,1.06-.49,2-1.15,2.8-1.98,.8-.83,1.44-1.8,1.89-2.88h0c.45-1.07,.68-2.22,.68-3.4s-.23-2.33-.69-3.42c-.46-1.09-1.09-2.06-1.89-2.88-.8-.82-1.74-1.48-2.82-1.97Z"/>
    <path class="cls-1" d="M161.72,15.71c-.43,1.1-.65,2.28-.65,3.49s.23,2.34,.7,3.38c.47,1.06,1.11,2.01,1.92,2.82,.81,.81,1.76,1.46,2.82,1.92,2.09,.92,4.66,.93,6.78-.01,1.07-.48,2.02-1.13,2.82-1.92,.79-.79,1.43-1.73,1.89-2.79,.45-1.05,.68-2.17,.68-3.33,0-1.32-.23-2.54-.69-3.65-.46-1.11-1.09-2.09-1.89-2.9-.79-.81-1.74-1.46-2.81-1.93-1.06-.46-2.2-.7-3.4-.7-1.3,0-2.5,.25-3.56,.74-1.08,.5-2.02,1.17-2.79,1.99-.77,.82-1.38,1.8-1.81,2.9Z"/>
    <path class="cls-1" d="M135.51,15.39c-.31,.68-.53,1.38-.67,2.1h17.36c-.14-.75-.37-1.47-.69-2.16-.48-1.04-1.12-1.96-1.9-2.74-.79-.77-1.71-1.4-2.75-1.85-2.06-.9-4.62-.89-6.65,.01-1.04,.47-1.98,1.1-2.78,1.89-.8,.79-1.44,1.71-1.92,2.75Z"/>
    <path class="cls-2" d="M13.61,26.45c-.14,.17-.33,.35-.59,.53h0c-.28,.2-.58,.39-.89,.54-.3,.15-.63,.27-.98,.36-1.04,.27-1.89,.13-2.73-.23-.57-.24-1.06-.57-1.49-1-.43-.43-.78-.94-1.04-1.53-.25-.57-.38-1.21-.38-1.9V10.65H13.97v-2.91H5.5V1.39l-3.17,3.07v3.28H0v2.91H2.33v12.73c0,1.1,.23,2.14,.68,3.08,.44,.92,1.03,1.73,1.74,2.41,.72,.68,1.56,1.22,2.49,1.6,.94,.38,1.93,.57,2.94,.57,1.16,0,2.26-.27,3.28-.8,.97-.5,1.78-1.1,2.38-1.76l.71-.77-2.19-2.19-.77,.94Z"/>
    <path class="cls-2" d="M36.09,10.04h0c-.92-.92-2.04-1.65-3.33-2.18-1.29-.52-2.71-.79-4.22-.79-1.79,0-3.48,.41-5.01,1.23-.84,.45-1.67,1.07-2.5,1.86V.28h-3.17V30.54h3.17l.04-13.17c0-1.04,.2-2,.6-2.87,.41-.89,.96-1.66,1.65-2.31,.69-.65,1.49-1.17,2.39-1.54,1.84-.76,3.97-.71,5.69,0,.89,.37,1.67,.89,2.32,1.54,.65,.65,1.18,1.43,1.56,2.32,.38,.88,.57,1.85,.57,2.9v13.14h3.17v-13.27c0-1.41-.26-2.75-.77-3.98-.51-1.23-1.24-2.32-2.16-3.24Z"/>
    <path class="cls-2" d="M63,10.87s-.04-.04-.05-.06c-.83-.87-1.74-1.59-2.71-2.14-.96-.55-1.97-.96-3-1.23-2.79-.71-5.38-.44-7.68,.55-1.45,.62-2.73,1.48-3.81,2.56-1.08,1.08-1.94,2.36-2.56,3.81-.63,1.45-.94,3.03-.94,4.68s.32,3.23,.94,4.68c.62,1.45,1.48,2.73,2.56,3.81,1.08,1.08,2.36,1.94,3.81,2.56,1.46,.63,3.03,.94,4.68,.94,.93,0,1.91-.12,2.91-.36,1.02-.24,2.02-.64,2.98-1.2,.96-.55,1.88-1.28,2.72-2.16,.05-.05,.09-.1,.14-.14v3.34h3.14V7.57h-3.14v3.3Zm.03,8.17c0,1.18-.23,2.32-.68,3.4h0c-.46,1.08-1.1,2.05-1.89,2.88-.8,.83-1.74,1.49-2.8,1.98-2.08,.96-4.7,.96-6.81,0-1.07-.49-2.02-1.15-2.81-1.98-.8-.83-1.44-1.8-1.91-2.89-.46-1.07-.7-2.21-.7-3.39s.23-2.33,.7-3.41c.47-1.09,1.11-2.06,1.91-2.88,.79-.82,1.75-1.48,2.83-1.97,1.07-.48,2.21-.72,3.4-.72s2.33,.24,3.38,.72c1.07,.49,2.02,1.15,2.82,1.97,.8,.82,1.43,1.78,1.89,2.88,.46,1.09,.69,2.24,.69,3.42Z"/>
    <polygon class="cls-2" points="69.49 10.61 71.04 10.61 71.04 30.54 74.21 30.54 74.21 7.57 69.49 7.57 69.49 10.61"/>
    <path class="cls-2" d="M70.37,.67c-.45,.45-.68,1.03-.68,1.69s.24,1.22,.68,1.66c.45,.45,1.02,.68,1.66,.68s1.21-.24,1.66-.68c.45-.45,.68-1.02,.68-1.66s-.23-1.24-.68-1.69c-.89-.89-2.43-.89-3.32,0Z"/>
    <path class="cls-2" d="M125.39,10.02c-.89-.92-1.94-1.65-3.13-2.17-1.2-.53-2.48-.8-3.81-.8-2.12,0-4.01,.58-5.62,1.71-1.06,.75-1.96,1.77-2.69,3.05-.21-.35-.44-.67-.68-.98-.68-.86-1.44-1.58-2.26-2.14-.83-.57-1.71-.99-2.62-1.25-1.75-.5-3.52-.5-5.26-.06-.87,.22-1.7,.57-2.47,1.05-.59,.36-1.14,.8-1.65,1.32v-2.17h-3.17V30.54h3.17l.04-13.17c0-1.06,.18-2.05,.53-2.95s.84-1.67,1.44-2.31c.6-.64,1.31-1.14,2.12-1.51,1.57-.71,3.49-.73,5.1,0,.8,.36,1.53,.89,2.15,1.55,.63,.67,1.13,1.48,1.49,2.4,.36,.92,.55,1.94,.55,3.04v12.94h3.17v-13.14c0-1.06,.18-2.05,.54-2.94,.36-.9,.86-1.68,1.47-2.33,.61-.65,1.32-1.16,2.12-1.53,1.57-.72,3.44-.72,5.04,0,.8,.36,1.51,.88,2.12,1.55,.62,.68,1.12,1.49,1.5,2.41,.37,.92,.56,1.94,.56,3.04v12.94h3.17v-13.14c0-1.47-.27-2.86-.79-4.11-.52-1.25-1.24-2.35-2.13-3.26Z"/>
    <path class="cls-2" d="M152.02,10.6c-1.08-1.09-2.35-1.96-3.79-2.6-2.9-1.28-6.45-1.27-9.37-.02-1.45,.62-2.73,1.48-3.81,2.56-1.08,1.08-1.94,2.36-2.57,3.81-.63,1.46-.94,3.03-.94,4.68s.32,3.2,.96,4.66c.63,1.44,1.5,2.72,2.58,3.8,1.08,1.08,2.36,1.94,3.8,2.58,1.46,.64,3.04,.96,4.69,.96,1.39,0,2.76-.24,4.07-.72,1.3-.48,2.51-1.17,3.58-2.05l.93-.77-2.21-2.21-.77,.62c-.83,.67-1.73,1.2-2.67,1.57-1.97,.78-4.38,.71-6.3-.13-1.04-.46-1.97-1.09-2.75-1.87-.79-.79-1.43-1.72-1.91-2.78-.32-.7-.55-1.44-.69-2.2h20.67v-1.49c0-1.61-.32-3.16-.95-4.6-.62-1.43-1.48-2.71-2.56-3.8Zm-5.16,.13c1.04,.46,1.97,1.08,2.75,1.85,.79,.77,1.43,1.69,1.9,2.74,.32,.69,.55,1.41,.69,2.16h-17.36c.13-.72,.36-1.42,.67-2.1,.48-1.04,1.12-1.97,1.92-2.75,.8-.79,1.73-1.42,2.78-1.89,2.03-.91,4.59-.92,6.65-.01Z"/>
    <path class="cls-2" d="M178.64,10.88c-.05-.05-.1-.11-.15-.16-.84-.87-1.75-1.59-2.7-2.12-.95-.53-1.94-.92-2.95-1.16-2.83-.67-5.51-.38-7.79,.62-1.46,.65-2.74,1.53-3.79,2.64-1.06,1.1-1.89,2.4-2.47,3.86-.59,1.46-.88,3.02-.88,4.64s.33,3.23,.98,4.67c.65,1.42,1.53,2.68,2.62,3.73,1.09,1.05,2.36,1.89,3.8,2.5,1.44,.61,2.99,.92,4.6,.92,1,0,2.02-.13,3.04-.38,1.03-.25,2.03-.67,2.99-1.24,.95-.56,1.84-1.28,2.65-2.14,.03-.03,.05-.06,.08-.09v3.38h3.14V.32h-3.14V10.88Zm-8.75-.79c1.2,0,2.34,.23,3.4,.7,1.07,.47,2.01,1.11,2.81,1.93,.79,.81,1.43,1.79,1.89,2.9,.46,1.11,.69,2.34,.69,3.65,0,1.16-.23,2.28-.68,3.33-.46,1.06-1.09,2-1.89,2.79-.8,.8-1.75,1.45-2.82,1.92-2.12,.94-4.69,.94-6.78,.01-1.06-.47-2.01-1.11-2.82-1.92-.81-.81-1.45-1.76-1.92-2.82-.46-1.05-.7-2.19-.7-3.38s.22-2.39,.65-3.49c.43-1.1,1.04-2.07,1.81-2.9,.77-.82,1.71-1.49,2.79-1.99,1.06-.49,2.26-.74,3.56-.74Z"/>
    <polygon class="cls-2" points="185.14 10.61 186.69 10.61 186.69 30.54 189.86 30.54 189.86 7.57 185.14 7.57 185.14 10.61"/>
    <path class="cls-2" d="M187.68,4.7c.64,0,1.21-.24,1.66-.68,.45-.45,.68-1.02,.68-1.66s-.23-1.24-.68-1.69c-.89-.89-2.43-.89-3.32,0-.45,.45-.68,1.03-.68,1.69s.24,1.22,.68,1.66c.45,.45,1.02,.68,1.66,.68Z"/>
  </g>
  <g>
    <path class="cls-1" d="M208.97,10.78c-1.05-.48-2.19-.72-3.38-.72s-2.34,.24-3.4,.72c-1.08,.49-2.03,1.15-2.83,1.97-.8,.82-1.44,1.79-1.91,2.88-.46,1.08-.7,2.23-.7,3.41s.23,2.32,.7,3.39c.47,1.09,1.11,2.06,1.91,2.89,.8,.83,1.74,1.49,2.81,1.98,2.1,.96,4.73,.96,6.81,0,1.06-.49,2-1.15,2.8-1.98,.8-.83,1.44-1.8,1.89-2.88h0c.45-1.07,.68-2.22,.68-3.4s-.23-2.33-.69-3.42c-.46-1.09-1.09-2.06-1.89-2.88-.8-.82-1.74-1.48-2.82-1.97Z"/>
    <path class="cls-2" d="M214.33,7.57v3.3s-.04-.04-.05-.06c-.83-.87-1.74-1.59-2.71-2.14-.96-.55-1.97-.96-3-1.23-2.79-.71-5.38-.44-7.68,.55-1.45,.62-2.73,1.48-3.81,2.56-1.08,1.08-1.94,2.36-2.56,3.81-.63,1.45-.94,3.03-.94,4.68s.32,3.23,.94,4.68c.62,1.45,1.48,2.73,2.56,3.81,1.08,1.08,2.36,1.94,3.81,2.56,1.46,.63,3.03,.94,4.68,.94,.93,0,1.91-.12,2.91-.36,1.02-.24,2.02-.64,2.98-1.2,.96-.55,1.88-1.28,2.72-2.16,.05-.05,.09-.1,.14-.14v3.34h3.14V7.57h-3.14Zm.03,11.47c0,1.18-.23,2.32-.68,3.4h0c-.46,1.08-1.1,2.05-1.89,2.88-.8,.83-1.74,1.49-2.8,1.98-2.08,.96-4.7,.96-6.81,0-1.07-.49-2.02-1.15-2.81-1.98-.8-.83-1.44-1.8-1.91-2.89-.46-1.07-.7-2.21-.7-3.39s.23-2.33,.7-3.41c.47-1.09,1.11-2.06,1.91-2.88,.79-.82,1.75-1.48,2.83-1.97,1.07-.48,2.21-.72,3.4-.72s2.33,.24,3.38,.72c1.07,.49,2.02,1.15,2.82,1.97,.8,.82,1.43,1.78,1.89,2.88,.46,1.09,.69,2.24,.69,3.42Z"/>
  </g>
</svg>